<?xml version="1.0" encoding="iso-8859-1"?>
<!-- Uploaded to: SVG Repo, www.svgrepo.com, Generator: SVG Repo Mixer Tools -->
<svg height="40px" width="40px" version="1.1" id="Layer_1" xmlns="http://www.w3.org/2000/svg" xmlns:xlink="http://www.w3.org/1999/xlink" 
	 viewBox="0 0 512.001 512.001" xml:space="preserve">
<path style="fill:#E6C26E;" d="M364.934,375.141l11.464-37.371c0-68.638-36.172-104.566-36.172-104.566l-18.138-23.059H189.909
	l-18.138,23.059c0,0-36.172,35.928-36.172,104.566l11.464,37.371L364.934,375.141L364.934,375.141z"/>
<path style="opacity:0.1;enable-background:new    ;" d="M196.035,233.205l18.136-23.059H189.91l-18.136,23.059
	c0,0-36.172,35.928-36.172,104.566l11.464,37.37h24.261l-11.464-37.37C159.863,269.133,196.035,233.205,196.035,233.205z"/>
<path style="fill:#61CCFF;" d="M418.319,306.729c-0.042,0.042-0.084,0.085-0.128,0.129l-22.55,22.983
	c-10.384,10.584-27.433,10.584-37.816,0l-22.55-22.983c-10.384-10.584-27.433-10.584-37.816,0l-22.55,22.983
	c-10.384,10.584-27.433,10.584-37.816,0l-22.55-22.983c-10.384-10.584-27.433-10.584-37.816,0l-22.55,22.983
	c-10.384,10.584-27.433,10.584-37.816,0l-22.55-22.983c-0.042-0.043-0.084-0.086-0.127-0.129
	c-5.402-5.431-14.705-0.956-14.058,6.677c11.364,133.915,95.787,190.669,176.376,190.669s165.013-56.754,176.376-190.669
	C433.024,305.774,423.72,301.298,418.319,306.729z"/>
<g style="opacity:0.1;">
	<path d="M104.273,317.523l-10.464-10.664c-0.042-0.043-0.084-0.086-0.128-0.129c-5.402-5.431-14.705-0.956-14.058,6.677
		C90.988,447.322,175.412,504.077,256,504.077c4.037,0,8.084-0.15,12.13-0.437C192.232,498.248,116.361,441.848,104.273,317.523z"/>
</g>
<path style="fill:#FFD77A;" d="M371.084,145.092c-5.645-11.377-9.85-23.376-13.066-35.662
	c-9.701-37.058-39.062-66.157-76.265-75.495l0,0c13.859-13.7,16.19-25.81,16.19-25.81s-21.925-2.036-34.072,6.864
	c-4.672,3.423-11.071,3.423-15.743,0c-12.146-8.899-34.072-6.864-34.072-6.864s2.33,12.11,16.189,25.81l0,0
	c-37.203,9.338-66.564,38.439-76.265,75.495c-3.216,12.286-7.421,24.285-13.066,35.662C127.348,172.436,131.84,253.524,256,253.524
	S384.652,172.436,371.084,145.092z"/>
<g style="opacity:0.1;">
	<path d="M230.246,33.934c-37.203,9.339-66.563,38.437-76.265,75.496c-3.217,12.286-7.422,24.285-13.066,35.662
		C127.348,172.436,131.84,253.524,256,253.524c4.181,0,8.217-0.099,12.13-0.278c-112.301-5.131-116.064-81.73-102.954-108.153
		c5.645-11.377,9.849-23.376,13.066-35.662C187.944,72.371,193.043,43.273,230.246,33.934L230.246,33.934z"/>
</g>
<path style="fill:#ED9472;" d="M294.049,165.68L256,152.957l-38.049,12.727c0,0.044-0.004,0.089-0.004,0.133
	c0,17.165,17.037,31.08,38.054,31.08s38.054-13.915,38.054-31.08C294.053,165.771,294.049,165.727,294.049,165.68z"/>
<path style="fill:#FF9E78;" d="M256,171.177c14.298,0,27.476-2.048,38.009-5.496l0.04-0.001
	c-0.091-17.102-17.089-30.944-38.049-30.944c-20.961,0-37.961,13.843-38.049,30.947l0.039-0.002
	C228.524,169.129,241.702,171.177,256,171.177z"/>
<circle cx="207.841" cy="126.472" r="11.105"/>
<circle cx="304.156" cy="126.472" r="11.105"/>
<path d="M256.001,126.839c-25.127,0-45.669,17.268-45.951,38.548c-0.001,0.028-0.005,0.056-0.006,0.084
	c-0.004,0.114-0.007,0.262-0.007,0.359c0,21.5,20.62,38.991,45.965,38.991c25.344,0,45.964-17.492,45.964-38.991
	c0-0.121-0.002-0.243-0.007-0.367c-0.001-0.023-0.004-0.045-0.005-0.069C301.674,144.111,281.128,126.839,256.001,126.839z
	 M256.001,188.999c-11.499,0-21.514-4.976-26.595-12.272c0.076,0.015,0.153,0.025,0.229,0.04c8.662,1.65,17.533,2.333,26.367,2.334
	c6.4,0,12.812-0.389,19.16-1.207c2.155-0.277,4.304-0.61,6.442-0.994c0.225-0.041,0.451-0.077,0.675-0.118
	c0.105-0.019,0.214-0.036,0.319-0.056C277.515,184.024,267.499,188.999,256.001,188.999z M284.17,160.222
	c-9.206,2.168-18.72,3.058-28.169,3.058c-5.043,0-10.089-0.244-15.103-0.804c-1.181-0.132-14.117-2.326-14.056-2.503
	c3.39-9.944,15.195-17.312,29.159-17.312c13.964,0,25.768,7.368,29.158,17.312C284.828,160.054,284.504,160.143,284.17,160.222z"/>
<path d="M389.995,324.314c-1.726,1.758-3.738,3.123-5.931,4.065c-2.299-48.054-21.697-79.724-31.836-93.136
	c9.092-7.06,15.498-14.742,19.981-21.971c15.852-25.56,14.203-55.076,5.963-71.683c-5.071-10.22-9.16-21.391-12.5-34.15
	c-9.404-35.919-35.701-64.663-70.009-77.442c7.986-10.767,9.826-19.206,10.048-20.364c0.422-2.192-0.102-4.461-1.442-6.246
	s-3.372-2.921-5.595-3.126c-2.549-0.237-25.321-2.014-39.479,8.359c-1.881,1.379-4.509,1.379-6.392,0
	c-14.157-10.372-36.929-8.596-39.479-8.359c-2.222,0.207-4.255,1.342-5.595,3.126c-1.34,1.785-1.864,4.054-1.442,6.246
	c0.223,1.159,2.064,9.605,10.059,20.378c-12.324,4.62-23.885,11.415-33.933,19.997c-3.322,2.837-3.715,7.832-0.878,11.154
	c2.839,3.323,7.833,3.715,11.154,0.878c11.398-9.736,25.052-16.797,39.483-20.419c2.771-0.696,4.951-2.832,5.706-5.587
	c0.753-2.756-0.038-5.704-2.07-7.713c-4.485-4.433-7.586-8.655-9.705-12.175c6.063,0.559,12.927,1.997,17.35,5.236
	c7.506,5.5,17.59,5.5,25.095,0c4.451-3.26,11.288-4.701,17.359-5.253c-2.121,3.527-5.225,7.754-9.714,12.192
	c-2.032,2.008-2.823,4.957-2.07,7.713c0.753,2.756,2.933,4.891,5.704,5.587c34.501,8.66,61.531,35.416,70.539,69.827
	c3.617,13.816,8.076,25.975,13.632,37.175c5.304,10.69,8.286,34.508-5.236,56.312c-20.914,33.722-66.459,40.692-102.761,40.692
	c-36.403,0-81.794-6.881-102.762-40.693c-13.523-21.804-10.54-45.622-5.236-56.312c5.557-11.2,10.017-23.36,13.632-37.175
	c2.517-9.613,6.499-18.769,11.834-27.218c2.333-3.694,1.23-8.581-2.464-10.913c-3.695-2.333-8.58-1.23-10.913,2.464
	c-6.203,9.823-10.834,20.475-13.762,31.66c-3.341,12.759-7.429,23.93-12.501,34.15c-8.24,16.607-9.888,46.123,5.964,71.683
	c4.483,7.23,10.889,14.911,19.981,21.971c-10.139,13.412-29.535,45.082-31.835,93.136c-2.193-0.942-4.207-2.307-5.932-4.065
	l-22.538-22.968l-0.178-0.18c-4.799-4.827-11.919-6.084-18.138-3.205c-6.301,2.918-9.996,9.249-9.412,16.128
	c5.389,63.517,27.751,115.601,64.667,150.623c32.143,30.494,74.616,47.288,119.593,47.288c41.996,0,82.327-14.858,113.563-41.838
	c3.307-2.856,3.672-7.852,0.815-11.159c-2.856-3.306-7.852-3.672-11.158-0.815c-28.362,24.498-65.02,37.99-103.22,37.99
	c-40.908,0-79.513-15.251-108.703-42.945c-34.059-32.311-54.733-80.89-59.79-140.482c-0.017-0.191,0.012-0.219,0.079-0.286
	c0.15-0.149,0.369-0.214,0.392-0.224c0,0,0.033,0.019,0.093,0.08c0.005,0.005,0.085,0.085,0.091,0.092
	c13.824,14.09,27.189,34.472,49.417,33.1c18.764-1.158,32.731-20.805,44.794-33.1c7.107-7.243,19.416-7.243,26.523,0.001
	c13.29,13.545,25.925,33.29,47.104,33.291c20.208,0.001,34.257-20.195,47.106-33.291c7.172-7.31,19.368-7.291,26.522,0
	c4.281,4.364,8.564,8.729,12.846,13.092c7.77,7.918,15.348,16.765,26.65,19.346c23.694,5.411,40.195-17.64,54.729-32.454
	l0.075-0.076c0.034-0.034,0.059-0.055,0.065-0.064c0.091,0.005,0.286,0.071,0.421,0.207c0.068,0.066,0.095,0.094,0.079,0.286
	c-4.277,50.409-19.213,92.007-44.393,123.643c-2.721,3.419-2.155,8.395,1.263,11.117c3.419,2.72,8.395,2.155,11.117-1.263
	c27.158-34.121,43.234-78.586,47.779-132.159c0.584-6.88-3.11-13.209-9.411-16.128c-6.22-2.88-13.338-1.622-18.158,3.222
	L389.995,324.314z M368.08,327.744c-0.675-0.349-1.332-0.764-1.955-1.198c-0.947-0.661-1.843-1.406-2.653-2.232l-22.55-22.983
	c-13.161-13.415-35.92-13.446-49.11,0c0,0-22.539,22.972-22.55,22.983c-7.022,7.157-19.391,7.267-26.522,0
	c0,0-22.539-22.972-22.55-22.983c-13.296-13.551-35.832-13.534-49.11,0l-22.55,22.983c-1.319,1.345-2.918,2.585-4.609,3.43
	c-0.044,0.023-0.092,0.042-0.137,0.065c2.435-44.611,20.706-72.959,29.229-83.887c-0.052,0.111,14.954,6.508,16.181,7.02
	c20.939,8.733,44.348,10.506,66.807,10.506c27.352,0,55.58-3.611,80.259-16.094c0.917-0.463,1.827-0.939,2.728-1.432
	c8.523,10.929,26.794,39.276,29.23,83.888C368.172,327.786,368.126,327.767,368.08,327.744z"/>
</svg>
