<svg width="181" height="190" viewBox="0 0 181 190" fill="none" xmlns="http://www.w3.org/2000/svg">
<path d="M170.14 69.3349C161.548 46.4239 142.397 27.8588 116.96 21.0429C75.1086 9.82897 32.0909 34.6652 20.877 76.5162C9.66307 118.367 34.4993 161.385 76.3503 172.599C88.7405 175.919 101.233 176.079 112.972 173.573" stroke="#99185E" stroke-opacity="0.2" stroke-width="21" stroke-linecap="round"/>
<path fill-rule="evenodd" clip-rule="evenodd" d="M66.009 76.6642C73.6523 68.7639 86.2755 68.6071 94.0706 76.3807C95.1069 77.4142 95.114 79.0968 94.0864 80.139C93.0588 81.1812 91.3857 81.1883 90.3494 80.1548C84.6531 74.4742 75.4031 74.5759 69.7968 80.3707C64.2497 86.1044 64.2943 95.277 69.9071 100.922L89.0793 120.203L93.3787 124.527L95.7645 126.831C96.7159 127.75 98.2174 127.753 99.1733 126.84C100.179 125.878 100.199 124.273 99.2181 123.286L93.3972 117.432C92.3653 116.395 92.3653 114.712 93.3972 113.674C94.4292 112.636 96.1023 112.636 97.1343 113.674L97.6059 114.148C97.7497 114.245 97.8861 114.356 98.0128 114.484L102.61 119.108L103.207 119.674C104.174 120.591 105.687 120.583 106.644 119.654C107.645 118.682 107.66 117.072 106.675 116.082L106.384 115.79L106.089 115.508L106.062 115.483L106.037 115.458L101.122 110.514C100.09 109.476 100.09 107.794 101.122 106.756C102.154 105.718 103.827 105.718 104.859 106.756L105.419 107.319C105.483 107.373 105.546 107.43 105.606 107.491L110.07 111.98L110.609 112.493C111.573 113.411 113.084 113.404 114.041 112.478C115.043 111.508 115.058 109.9 114.074 108.911L103.269 98.0443L101.164 100.111C97.8203 103.393 92.4678 103.339 89.1907 99.9902C85.9566 96.6853 85.939 91.3877 89.1511 88.061L92.6524 84.4349L92.6521 84.4347L92.6796 84.4071L95.1008 81.9721L100.334 76.7089C108.133 68.8661 120.758 68.8061 128.629 76.5745C136.617 84.4574 136.666 97.3829 128.738 105.327L125.638 108.434C124.604 109.47 122.931 109.467 121.901 108.427C120.871 107.387 120.874 105.704 121.908 104.668L125.008 101.562C130.852 95.7062 130.816 86.1787 124.928 80.3682C119.126 74.642 109.819 74.6862 104.071 80.4672L98.8378 85.7304L96.4303 88.1516L92.9425 91.7638C91.7313 93.0182 91.738 95.0158 92.9575 96.262C94.1932 97.5248 96.2115 97.5452 97.4722 96.3077L106.52 87.426C107.565 86.4009 109.238 86.4213 110.257 87.4716C111.277 88.5219 111.256 90.2045 110.212 91.2297L107.052 94.3316L117.811 105.152C120.886 108.245 120.839 113.273 117.707 116.307C116.292 117.676 114.49 118.403 112.664 118.484C112.517 120.314 111.733 122.101 110.314 123.479C108.882 124.868 107.052 125.598 105.201 125.666C105.054 127.512 104.257 129.313 102.814 130.692C99.811 133.563 95.0933 133.551 92.1042 130.665L89.6991 128.343L89.6798 128.324L89.6608 128.305L85.3423 123.962L66.1701 104.68C58.5014 96.9678 58.4578 84.4694 66.009 76.6642Z" fill="#99185E"/>
</svg>
