<svg width="316" height="173" viewBox="0 0 316 173" fill="none" xmlns="http://www.w3.org/2000/svg">
<rect x="183" width="49" height="162" fill="#A1C3DA"/>
<rect x="81" width="49" height="162" fill="#F4BBB9"/>
<rect x="183" y="59" width="44" height="53" transform="rotate(90 183 59)" fill="#F9D7A1"/>
<line x1="316" y1="162.5" y2="162.5" stroke="#071A36" stroke-opacity="0.21"/>
<path fill-rule="evenodd" clip-rule="evenodd" d="M193 136.165C193 121.119 205.198 108.921 220.245 108.921C235.291 108.921 247.489 121.119 247.489 136.165C247.489 151.212 235.291 163.41 220.245 163.41C205.198 163.41 193 151.212 193 136.165Z" fill="#540C06"/>
<path fill-rule="evenodd" clip-rule="evenodd" d="M200.783 73.8921C200.783 71.7425 202.526 70 204.675 70H215.054C217.204 70 218.946 71.7425 218.946 73.8921V95.9472H251.38C259.262 95.9472 265.651 102.337 265.651 110.218V121.894H282.517C284.666 121.894 286.409 123.637 286.409 125.786C286.409 127.936 284.666 129.679 282.517 129.679H261.759C259.61 129.679 257.867 127.936 257.867 125.786V110.218C257.867 106.636 254.963 103.731 251.38 103.731H215.054C212.905 103.731 211.162 101.989 211.162 99.8393V77.7842H204.675C202.526 77.7842 200.783 76.0416 200.783 73.8921Z" fill="#E78885"/>
<path fill-rule="evenodd" clip-rule="evenodd" d="M255.273 149.138C255.273 141.257 261.663 134.867 269.544 134.867C277.426 134.867 283.815 141.257 283.815 149.138C283.815 157.02 277.426 163.409 269.544 163.409C261.663 163.409 255.273 157.02 255.273 149.138Z" fill="#540C06"/>
<path fill-rule="evenodd" clip-rule="evenodd" d="M52.3965 108.25C52.3965 105.178 54.8869 102.688 57.959 102.688C61.0311 102.688 63.5215 105.178 63.5215 108.25C63.5215 111.322 61.0311 113.812 57.959 113.812C54.8869 113.812 52.3965 111.322 52.3965 108.25Z" fill="#540C06"/>
<path fill-rule="evenodd" clip-rule="evenodd" d="M52.3965 126.791C52.3965 123.719 54.8869 121.229 57.959 121.229C61.0311 121.229 63.5215 123.719 63.5215 126.791C63.5215 129.863 61.0311 132.354 57.959 132.354C54.8869 132.354 52.3965 129.863 52.3965 126.791Z" fill="#540C06"/>
<path fill-rule="evenodd" clip-rule="evenodd" d="M70.9375 108.25C70.9375 105.178 73.4279 102.688 76.5 102.688C79.5721 102.688 82.0625 105.178 82.0625 108.25C82.0625 111.322 79.5721 113.812 76.5 113.812C73.4279 113.812 70.9375 111.322 70.9375 108.25Z" fill="#540C06"/>
<path fill-rule="evenodd" clip-rule="evenodd" d="M74.1015 127.768C74.1015 123.677 77.3876 120.303 81.5111 120.303C85.6347 120.303 88.9208 123.677 88.9208 127.768V135.643L97.1163 137.301C102.983 138.489 106.509 144.499 104.813 150.222L101.631 160.958C101.281 162.139 100.196 162.949 98.9641 162.949H75.147C74.2117 162.949 73.339 162.478 72.8244 161.697L63.7672 147.948C61.9217 145.146 62.2822 141.418 64.6432 139.028C67.2294 136.411 71.3354 136.256 74.1015 138.554V127.768Z" fill="#F68282"/>
</svg>
