<svg width="316" height="173" viewBox="0 0 316 173" fill="none" xmlns="http://www.w3.org/2000/svg">
<rect x="183" width="49" height="162" fill="#A1C3DA"/>
<rect x="81" width="49" height="162" fill="#F4BBB9"/>
<rect x="183" y="59" width="44" height="53" transform="rotate(90 183 59)" fill="#F9D7A1"/>
<line x1="316" y1="162.5" y2="162.5" stroke="#071A36" stroke-opacity="0.21"/>
<path fill-rule="evenodd" clip-rule="evenodd" d="M193 136.165C193 121.118 205.198 108.921 220.245 108.921C235.291 108.921 247.489 121.118 247.489 136.165C247.489 151.212 235.291 163.41 220.245 163.41C205.198 163.41 193 151.212 193 136.165Z" fill="#540C06"/>
<path fill-rule="evenodd" clip-rule="evenodd" d="M200.784 73.8921C200.784 71.7425 202.527 70 204.676 70H215.055C217.205 70 218.947 71.7425 218.947 73.8921V95.9472H251.381C259.263 95.9472 265.652 102.337 265.652 110.218V121.894H282.518C284.667 121.894 286.41 123.637 286.41 125.786C286.41 127.936 284.667 129.679 282.518 129.679H261.76C259.611 129.679 257.868 127.936 257.868 125.786V110.218C257.868 106.636 254.964 103.731 251.381 103.731H215.055C212.906 103.731 211.163 101.989 211.163 99.8393V77.7842H204.676C202.527 77.7842 200.784 76.0416 200.784 73.8921Z" fill="#E78885"/>
<path fill-rule="evenodd" clip-rule="evenodd" d="M255.273 149.139C255.273 141.257 261.662 134.868 269.544 134.868C277.426 134.868 283.815 141.257 283.815 149.139C283.815 157.02 277.426 163.41 269.544 163.41C261.662 163.41 255.273 157.02 255.273 149.139Z" fill="#540C06"/>
<path fill-rule="evenodd" clip-rule="evenodd" d="M52.396 108.25C52.396 105.178 54.8864 102.688 57.9585 102.688C61.0306 102.688 63.521 105.178 63.521 108.25C63.521 111.322 61.0306 113.812 57.9585 113.812C54.8864 113.812 52.396 111.322 52.396 108.25Z" fill="#540C06"/>
<path fill-rule="evenodd" clip-rule="evenodd" d="M52.396 126.792C52.396 123.719 54.8864 121.229 57.9585 121.229C61.0306 121.229 63.521 123.719 63.521 126.792C63.521 129.864 61.0306 132.354 57.9585 132.354C54.8864 132.354 52.396 129.864 52.396 126.792Z" fill="#540C06"/>
<path fill-rule="evenodd" clip-rule="evenodd" d="M70.9375 108.25C70.9375 105.178 73.4279 102.688 76.5 102.688C79.5721 102.688 82.0625 105.178 82.0625 108.25C82.0625 111.322 79.5721 113.812 76.5 113.812C73.4279 113.812 70.9375 111.322 70.9375 108.25Z" fill="#540C06"/>
<path fill-rule="evenodd" clip-rule="evenodd" d="M89.4795 108.25C89.4795 105.178 91.9699 102.688 95.042 102.688C98.1141 102.688 100.604 105.178 100.604 108.25C100.604 111.322 98.1141 113.812 95.042 113.812C91.9699 113.812 89.4795 111.322 89.4795 108.25Z" fill="#540C06"/>
<path fill-rule="evenodd" clip-rule="evenodd" d="M74.1015 127.768C74.1015 123.676 77.3876 120.302 81.5111 120.302C85.6347 120.302 88.9208 123.676 88.9208 127.768V135.642L97.1163 137.301C102.983 138.488 106.509 144.499 104.813 150.221L101.631 160.957C101.281 162.138 100.196 162.948 98.9641 162.948H75.147C74.2117 162.948 73.339 162.478 72.8244 161.697L63.7672 147.947C61.9217 145.146 62.2822 141.417 64.6432 139.028C67.2294 136.41 71.3354 136.256 74.1015 138.553V127.768Z" fill="#F68282"/>
</svg>
