<svg width="172" height="190" viewBox="0 0 172 190" fill="none" xmlns="http://www.w3.org/2000/svg">
<path d="M158.12 75.2294C151.067 56.4216 135.345 41.1814 114.463 35.5862C80.1077 26.3806 44.7942 46.7688 35.5886 81.1246C26.383 115.48 46.7713 150.794 81.127 159.999C91.2982 162.725 101.553 162.856 111.19 160.799" stroke="#E6C7D8" stroke-width="21" stroke-linecap="round"/>
<path fill-rule="evenodd" clip-rule="evenodd" d="M104.107 14.1855C104.107 12.7671 105.257 11.6172 106.676 11.6172H113.524C114.943 11.6172 116.093 12.7671 116.093 14.1855V28.7392H137.495C142.696 28.7392 146.912 32.9554 146.912 38.1563V45.8612H158.042C159.46 45.8612 160.61 47.0111 160.61 48.4295C160.61 49.8479 159.46 50.9978 158.042 50.9978H144.344C142.926 50.9978 141.776 49.8479 141.776 48.4295V38.1563C141.776 35.7922 139.859 33.8758 137.495 33.8758H113.524C112.106 33.8758 110.956 32.7259 110.956 31.3075V16.7538H106.676C105.257 16.7538 104.107 15.6039 104.107 14.1855ZM116.949 42.4368C109.857 42.4368 104.107 48.1861 104.107 55.2783C104.107 62.3705 109.857 68.1198 116.949 68.1198C124.041 68.1198 129.79 62.3705 129.79 55.2783C129.79 48.1861 124.041 42.4368 116.949 42.4368ZM98.9707 55.2783C98.9707 45.3493 107.02 37.3002 116.949 37.3002C126.878 37.3002 134.927 45.3493 134.927 55.2783C134.927 65.2073 126.878 73.2564 116.949 73.2564C107.02 73.2564 98.9707 65.2073 98.9707 55.2783ZM145.2 63.8393C145.2 61.4752 147.117 59.5588 149.481 59.5588C151.845 59.5588 153.761 61.4752 153.761 63.8393C153.761 66.2033 151.845 68.1198 149.481 68.1198C147.117 68.1198 145.2 66.2033 145.2 63.8393ZM149.481 54.4222C144.28 54.4222 140.064 58.6384 140.064 63.8393C140.064 69.0402 144.28 73.2564 149.481 73.2564C154.682 73.2564 158.898 69.0402 158.898 63.8393C158.898 58.6384 154.682 54.4222 149.481 54.4222Z" fill="#99185E"/>
<path fill-rule="evenodd" clip-rule="evenodd" d="M49.9957 115.19C50.329 114.954 50.6989 114.702 51.1029 114.439C53.0534 113.172 55.8606 111.627 59.2327 110.588C66.1266 108.465 75.3301 108.52 83.8965 116.912C90.2591 123.144 91.7708 129.991 91.0133 136.07C90.2759 141.987 87.4199 147.028 85.3056 150.081C84.0571 151.884 82.2077 152.748 80.3292 152.818C80.318 152.933 80.3045 153.049 80.2884 153.166C80.0237 155.084 79.1068 156.959 77.4001 158.631C75.6934 160.303 73.7794 161.201 71.8212 161.461C71.2848 161.532 70.7622 161.553 70.2577 161.534C70.2764 162.028 70.2551 162.54 70.1826 163.066C69.918 164.984 69.001 166.859 67.2943 168.531C65.5876 170.203 63.6737 171.101 61.7155 171.36C61.179 171.431 60.6565 171.452 60.152 171.434C60.1707 171.928 60.1494 172.44 60.0769 172.965C59.8123 174.883 58.8953 176.758 57.1886 178.43C55.4819 180.102 53.5679 181 51.6097 181.26C49.7017 181.512 47.9697 181.131 46.5985 180.605C45.2289 180.08 44.1078 179.37 43.3464 178.814C42.9593 178.531 42.6486 178.276 42.4273 178.085C42.3163 177.989 42.2267 177.908 42.1601 177.846L42.0775 177.769L42.0493 177.742L42.0385 177.731L42.034 177.727C42.034 177.727 42.03 177.723 44.1955 175.602L42.03 177.723L16.0438 152.267C16.0232 152.247 16.0029 152.227 15.983 152.206L15.9721 152.195L15.9557 152.177L15.9065 152.125C15.8667 152.083 15.8129 152.024 15.7467 151.951C15.6142 151.804 15.4316 151.597 15.2103 151.333C14.7685 150.807 14.1692 150.05 13.5074 149.097C12.1919 147.202 10.5872 144.469 9.50787 141.173C8.42551 137.868 7.85072 133.928 8.69519 129.695C9.54516 125.434 11.7944 121.075 16.0438 116.912C20.2932 112.749 24.7435 110.546 29.0931 109.713C33.4146 108.886 37.4364 109.449 40.8105 110.509C44.1752 111.567 46.9649 113.139 48.8992 114.427C49.2995 114.694 49.6658 114.95 49.9957 115.19ZM45.5988 119.485L45.4549 119.389C43.8447 118.316 41.5867 117.054 38.9397 116.223C36.3021 115.394 33.3478 115.012 30.2678 115.602C27.216 116.186 23.8392 117.761 20.3748 121.155C16.9105 124.548 15.3029 127.856 14.7065 130.846C14.1046 133.863 14.4941 136.757 15.3401 139.341C16.1893 141.934 17.4772 144.145 18.5722 145.723C19.1158 146.506 19.6012 147.117 19.9428 147.524C20.1133 147.728 20.247 147.879 20.333 147.974L20.4173 148.066L46.3496 173.469L46.363 173.482C46.3836 173.501 46.423 173.537 46.4797 173.586C46.5939 173.684 46.7738 173.833 47.0071 174.003C47.4863 174.353 48.1248 174.747 48.8304 175.018C49.5346 175.288 50.1936 175.393 50.7895 175.314C51.3351 175.241 52.0378 174.991 52.8576 174.188C53.6773 173.385 53.9333 172.696 54.0071 172.162C54.0876 171.578 53.9806 170.932 53.7051 170.243C53.4289 169.551 53.0265 168.926 52.6692 168.457C52.4953 168.228 52.3439 168.052 52.2431 167.94C52.2369 167.933 52.2308 167.926 52.225 167.92C52.1842 167.875 52.1541 167.843 52.1371 167.826L52.1243 167.812L47.8046 163.581C46.6086 162.409 46.6086 160.51 47.8046 159.338C49.0006 158.167 50.9397 158.167 52.1357 159.338L56.4553 163.57L56.4688 163.582C56.4893 163.601 56.5287 163.637 56.5854 163.686C56.6996 163.785 56.8796 163.933 57.1128 164.104C57.592 164.454 58.2305 164.848 58.9362 165.118C59.6403 165.388 60.2994 165.493 60.8952 165.414C61.4409 165.342 62.1436 165.091 62.9633 164.288C63.783 163.485 64.0391 162.797 64.1128 162.262C64.1933 161.679 64.0863 161.033 63.8108 160.343C63.5346 159.652 63.1322 159.026 62.775 158.557C62.6011 158.329 62.4496 158.152 62.3488 158.04C62.2988 157.985 62.2622 157.946 62.2429 157.926L62.2301 157.913L58.013 153.782C56.817 152.61 56.817 150.711 58.013 149.539C59.2089 148.368 61.148 148.368 62.344 149.539L66.561 153.67L66.5745 153.683C66.595 153.702 66.6344 153.738 66.6912 153.787C66.8054 153.885 66.9853 154.034 67.2186 154.204C67.6978 154.554 68.3362 154.948 69.0419 155.219C69.746 155.489 70.4051 155.594 71.0009 155.515C71.5466 155.442 72.2493 155.192 73.069 154.389C73.8888 153.586 74.1448 152.897 74.2185 152.363C74.299 151.779 74.192 151.133 73.9165 150.444C73.6404 149.752 73.238 149.127 72.8807 148.658C72.7068 148.429 72.5554 148.253 72.4546 148.141L72.3916 148.072L72.3486 148.027L72.3358 148.013L66.5725 142.368L66.5535 142.349L60.0758 136.004L53.5793 142.368C49.194 146.663 42.0841 146.663 37.6988 142.368L33.3678 138.125C32.2478 137.028 32.1666 135.275 33.1806 134.083L45.5988 119.485ZM76.6822 143.786L76.6867 143.79L79.5655 146.61C79.7501 146.791 79.939 146.83 80.0473 146.825C80.0997 146.822 80.1317 146.81 80.1496 146.8C80.163 146.793 80.1947 146.774 80.2369 146.713C82.0993 144.023 84.3644 139.909 84.9334 135.343C85.4823 130.938 84.4855 125.974 79.5654 121.154C72.9343 114.658 66.2574 114.714 61.0702 116.312C58.4018 117.134 56.1182 118.381 54.4882 119.44C53.6789 119.965 53.046 120.435 52.624 120.765C52.4227 120.923 52.2704 121.048 52.171 121.132L39.6764 135.819L42.0299 138.125C44.0232 140.077 47.2549 140.077 49.2482 138.125L57.9103 129.64C58.4846 129.077 59.2636 128.761 60.0758 128.761C60.888 128.761 61.667 129.077 62.2413 129.64L76.6822 143.786Z" fill="#99185E"/>
</svg>
