<svg width="92" height="27" viewBox="0 0 92 27" fill="none" xmlns="http://www.w3.org/2000/svg">
<path fill-rule="evenodd" clip-rule="evenodd" d="M90.8459 0.980469H81.3265C81.3265 0.980469 80.6705 0.980469 80.4389 1.51932L75.1718 16.4995L69.909 1.51932C69.6761 0.981796 69.0171 0.981796 69.0171 0.981796H50.716C50.5239 0.983168 50.34 1.05438 50.2037 1.18016C50.0674 1.30595 49.9897 1.47629 49.9871 1.65469V6.74188C49.9871 2.70717 45.366 0.981796 42.6589 0.981796C36.5985 0.981796 32.5421 4.69002 31.2786 10.3293C31.21 6.58792 30.8755 5.24744 29.7906 3.87511C29.2918 3.20222 28.5728 2.63815 27.7896 2.16965C26.1744 1.29104 24.7237 0.981796 21.6092 0.981796H17.9501C17.9501 0.981796 17.2897 0.981796 17.0567 1.51932L13.7278 9.18262V1.65469C13.726 1.47699 13.6492 1.30704 13.514 1.18125C13.3788 1.05547 13.196 0.98387 13.0046 0.981796H4.53868C4.53868 0.981796 3.88547 0.981796 3.64678 1.51932L0.1878 9.48787C0.1878 9.48787 -0.158098 10.2842 0.630892 10.2842H3.88547V25.4675C3.88547 25.8444 4.20421 26.1443 4.61157 26.1443H13.0017C13.0973 26.1442 13.1918 26.1265 13.28 26.0924C13.3682 26.0583 13.4483 26.0084 13.5158 25.9455C13.5832 25.8827 13.6366 25.8081 13.673 25.7261C13.7094 25.6441 13.728 25.5562 13.7278 25.4675V10.2842H16.9996C18.8763 10.2842 19.2722 10.332 20.0026 10.6479C20.4428 10.8031 20.8387 11.115 21.056 11.4747C21.4991 12.2485 21.6092 13.1775 21.6092 15.9182V25.4675C21.6092 25.8444 21.935 26.1443 22.3381 26.1443H30.3795C30.3795 26.1443 31.2886 26.1443 31.6473 25.3082L33.4297 21.2164C35.7995 24.3008 39.7002 26.143 44.5485 26.143H45.6076C45.6076 26.143 46.5224 26.143 46.884 25.3095L49.9885 18.1678V25.4675C49.9885 25.647 50.0653 25.8191 50.202 25.9461C50.3387 26.073 50.5241 26.1443 50.7174 26.1443H58.9261C58.9261 26.1443 59.8323 26.1443 60.1953 25.3082C60.1953 25.3082 63.4785 17.7365 63.4914 17.6794H63.4971C63.6229 17.049 62.7667 17.049 62.7667 17.049H59.8366V4.05428L69.0557 25.3095C69.4145 26.143 70.3221 26.143 70.3221 26.143H80.0215C80.0215 26.143 80.9335 26.143 81.2936 25.3095L91.5148 1.7967C91.8678 0.981796 90.8444 0.981796 90.8444 0.981796L90.8459 0.980469ZM49.9856 17.0503H44.4713C43.4155 17.0503 42.403 16.6609 41.6565 15.9677C40.91 15.2745 40.4906 14.3343 40.4906 13.354C40.4906 12.3737 40.91 11.4336 41.6565 10.7404C42.403 10.0472 43.4155 9.65776 44.4713 9.65776H46.0135C47.0682 9.66057 48.0786 10.0515 48.8234 10.7448C49.5682 11.4382 49.9867 12.3774 49.9871 13.3567L49.9856 17.0503Z" fill="#C30100"/>
</svg>
