<svg width="65" height="41" viewBox="0 0 65 41" fill="none" xmlns="http://www.w3.org/2000/svg">
<path fill-rule="evenodd" clip-rule="evenodd" d="M30.2788 40.9859C19.0087 40.9859 9.87024 31.8114 9.87024 20.4944C9.87024 9.17624 19.0087 0 30.2788 0C41.553 0 50.6924 9.17624 50.6924 20.4944C50.6924 31.8114 41.553 40.9859 30.2788 40.9859Z" fill="#C30000"/>
<path fill-rule="evenodd" clip-rule="evenodd" d="M0 29.4421L4.17184 19.0759H8.18034L4.01381 29.4421H0Z" fill="#C30000"/>
<path fill-rule="evenodd" clip-rule="evenodd" d="M51.4789 29.4421L55.5973 19.0759H57.7827L53.6645 29.4421H51.4789Z" fill="#C30000"/>
<mask id="mask0_1_3388" style="mask-type:alpha" maskUnits="userSpaceOnUse" x="59" y="19" width="6" height="11">
<path d="M64.8564 29.4421V19.0759H59.5782V29.4421H64.8564Z" fill="white"/>
</mask>
<g mask="url(#mask0_1_3388)">
<path fill-rule="evenodd" clip-rule="evenodd" d="M59.5782 29.4421L63.696 19.0759H64.8565L60.7383 29.4421H59.5782Z" fill="#C30000"/>
</g>
<path fill-rule="evenodd" clip-rule="evenodd" d="M47.6897 19.0759H44.0613C44.0613 19.0759 43.8112 19.0759 43.7228 19.2977L41.7148 25.4693L39.7085 19.2977C39.62 19.0759 39.3685 19.0759 39.3685 19.0759H32.392C32.2409 19.0759 32.1143 19.2026 32.1143 19.3532V21.4491C32.1143 19.7865 30.3523 19.0759 29.3205 19.0759C27.01 19.0759 25.4633 20.6038 24.9817 22.9268C24.9556 21.3858 24.828 20.8336 24.4146 20.2681C24.2247 19.991 23.9502 19.7581 23.6513 19.5655C23.0358 19.2035 22.4832 19.0759 21.2956 19.0759H19.9011C19.9011 19.0759 19.6491 19.0759 19.5602 19.2977L18.2913 22.4547V19.3532C18.2913 19.2026 18.1657 19.0759 18.0149 19.0759H14.7881C14.7881 19.0759 14.539 19.0759 14.4483 19.2977L13.1293 22.5803C13.1293 22.5803 12.9976 22.9086 13.2986 22.9086H14.539V29.1639C14.539 29.3191 14.6607 29.4421 14.8161 29.4421H18.0149C18.1657 29.4421 18.2913 29.3191 18.2913 29.1639V22.9086H19.5382C20.2536 22.9086 20.4051 22.9282 20.6835 23.0585C20.8512 23.1221 21.0022 23.2506 21.0846 23.3989C21.2533 23.7177 21.2956 24.1005 21.2956 25.2293V29.1639C21.2956 29.3191 21.4198 29.4421 21.5732 29.4421H24.6391C24.6391 29.4421 24.9856 29.4421 25.1226 29.0986L25.8021 27.4125C26.7056 28.683 28.1926 29.4421 30.0406 29.4421H30.4444C30.4444 29.4421 30.7931 29.4421 30.931 29.0986L32.1143 26.1563V29.1639C32.1143 29.3191 32.2409 29.4421 32.392 29.4421H35.5216C35.5216 29.4421 35.8669 29.4421 36.0056 29.0986C36.0056 29.0986 37.2573 25.9785 37.2621 25.955H37.2641C37.3122 25.6954 36.9855 25.6954 36.9855 25.6954H35.8684V20.3416L39.383 29.0986C39.5202 29.4421 39.8662 29.4421 39.8662 29.4421H43.5635C43.5635 29.4421 43.9115 29.4421 44.0487 29.0986L47.9451 19.4117C48.0799 19.0759 47.6897 19.0759 47.6897 19.0759ZM32.1143 25.6954H30.0121C29.1753 25.6954 28.4946 25.0151 28.4946 24.174C28.4946 23.3343 29.1753 22.6497 30.0121 22.6497H30.6C31.4346 22.6497 32.1143 23.3343 32.1143 24.174V25.6954Z" fill="#FEFEFE"/>
</svg>
