<svg xmlns="http://www.w3.org/2000/svg" version="1.2" viewBox="0 0 741 894" width="200" height="241">
  <style>.a{fill:#d09242}.b{fill:#f00}.c{fill:#fff}</style>
  <path class="a"
        d="m378 284c-74.7 0-135-60.3-135-135 0-74.7 60.3-135 135-135 74.7 0 135 60.3 135 135 0 74.7-60.3 135-135 135zm-1 349c-75.5 1.3-136.5-83.4-136.5-189.5 0-106.1 61-192.8 136.5-194.1 58.2-0.9 107.7 49.1 127.4 120.7 5.9 21.3 9.1 44.5 9.1 68.9 0 106.1-61 192.8-136.5 194zm-38.1-272.6c-18.6 32.3-67.8 41.7-143.2-1.6-75.5-43.3-201-124.1-185.6-158 36.3-80.5 347.3 127.3 328.8 159.6zm93.7-4.2c17.9 32.5 66.1 37.6 139-6 73-43.6 175.6-119.7 160.8-153.8-35.1-81-317.7 127.2-299.8 159.8zm-275.6 514.5c-32.9-16.2-20.2-109.2 28.4-208.1 48.6-98.9 114.5-165.8 147.4-149.7 32.9 16.2 20.1 109.2-28.5 208.1-48.6 98.9-114.5 165.8-147.3 149.7zm398 16.7c30.6-16.9 18.8-114.4-26.6-218.1-45.3-103.6-106.7-173.7-137.4-156.8-30.6 17-18.8 114.4 26.6 218.1 45.3 103.6 106.7 173.7 137.4 156.8z"/>
  <path class="a"
        d="m401.3 383.4c-14-27-1-61.6 29.2-77.3 30.2-15.7 66-6.5 80.1 20.6 14.1 27.1 1 61.6-29.2 77.3-30.2 15.7-66 6.5-80.1-20.6z"/>
  <path class="a"
        d="m414.2 638c-35 0-63.2-31.5-63.2-70.5 0-39 28.2-70.5 63.2-70.5 34.9 0 63.2 31.5 63.2 70.5 0 39-28.3 70.5-63.2 70.5z"/>
  <path class="b"
        d="m380.5 357c-11.9 0-21.5-9.6-21.5-21.5 0-11.9 9.6-21.5 21.5-21.5 11.9 0 21.5 9.6 21.5 21.5 0 11.9-9.6 21.5-21.5 21.5z"/>
  <path class="b"
        d="m380.5 414c-11.9 0-21.5-9.6-21.5-21.5 0-11.9 9.6-21.5 21.5-21.5 11.9 0 21.5 9.6 21.5 21.5 0 11.9-9.6 21.5-21.5 21.5z"/>
  <path class="b"
        d="m380.5 467c-11.9 0-21.5-9.6-21.5-21.5 0-11.9 9.6-21.5 21.5-21.5 11.9 0 21.5 9.6 21.5 21.5 0 11.9-9.6 21.5-21.5 21.5z"/>
  <path class="c"
        d="m331.5 139c-9.7 0-17.5-7.8-17.5-17.5 0-9.7 7.8-17.5 17.5-17.5 9.7 0 17.5 7.8 17.5 17.5 0 9.7-7.8 17.5-17.5 17.5z"/>
  <path class="c"
        d="m424.5 133c-9.7 0-17.5-7.8-17.5-17.5 0-9.7 7.8-17.5 17.5-17.5 9.7 0 17.5 7.8 17.5 17.5 0 9.7-7.8 17.5-17.5 17.5z"/>
  <path class="c"
        d="m373.5 234.8c-40.1 0-75.5-41.3-73.9-42.4 8.5-6.3 36.6 31.8 76.7 31.8 40.1 0 80.6-39.4 87-32.2 1.3 1.5-49.7 42.8-89.8 42.8z"/>
  <path class="c"
        d="m72.6 279.3c-2.2-1.3 6.7-19.8 19.7-41.5 13.1-21.7 25.4-38.1 27.5-36.9 2.2 1.3-6.6 19.9-19.7 41.6-13.1 21.6-25.4 38.1-27.5 36.8z"/>
  <path class="c"
        d="m677.4 277.2c-2 1.4-15.5-14.3-30.2-35.3-14.6-21-24.7-39.2-22.7-40.6 2.1-1.5 15.6 14.3 30.3 35.3 14.6 21 24.7 39.1 22.6 40.6z"/>
  <path class="c"
        d="m219.8 746.8c-31.9-11.3-56.9-23-55.8-26.1 1.1-3.1 27.8 3.5 59.8 14.9 32 11.4 56.9 23.1 55.8 26.2-1.1 3.1-27.8-3.6-59.8-15z"/>
  <path fill-rule="evenodd" class="c"
        d="m376 621c-21.5 0-41.6-7.7-59.2-21.2q0.9-0.9 1.8-1.8 1.7-1.8 3-3.8c16.4 12.2 35 19.1 54.8 19.1 8.1 0 16-1.1 23.6-3.3q0.6 2.8 1.5 5.6 0.2 0.8 0.5 1.5c-8.4 2.6-17.1 3.9-26 3.9zm117.8-173.8c0-19.9-2.4-38.9-6.9-56.5q2.1 0.1 4.3 0.1 1.4 0 2.7 0c3.9 17.2 6.1 35.6 6.1 54.7 0 56.4-18.7 106.5-47.9 138.6q-1.9-2.8-4-5.2c27.8-30.4 45.7-78.1 45.7-131.7zm-117.4-166.2c-20 0-38.9 7.1-55.4 19.6q-4.6-2.8-9.7-4.9c18.8-16.3 41-25.7 64.7-25.7 24.2 0 46.8 9.8 65.9 26.8-4.1 0.9-7.3 2.2-9.8 4-16.6-12.6-35.5-19.8-55.7-19.8zm-117.4 166.2c0 45.2 12.7 86.1 33.3 116q-2.8 2-5.3 4.6c-21.7-31.6-35-74.7-35-122.3 0-17.2 1.7-33.9 5-49.6q3.5 1.2 7.2 2.1c-3.4 15.5-5.2 32-5.2 49.2z"/>
  <path fill-rule="evenodd" class="c"
        d="m161.8 858.1c-24.7-12.4-9.5-92.3 34-178.8 28.3-56.3 61.6-101.4 88.2-122.5q0.1 2.8 1 5.7c1.1 3.7 3.2 2.5 3.6 4.6q0 0.1 0 0.2c-23.3 14.6-56.2 57.7-85 114-39.8 77.6-56.3 150.6-37.1 163.2 19.2 12.6 66.8-39.9 106.5-117.5 25.2-49.3 41.1-96.7 44.5-128q0 0 0 0c3.9 0 6.2 2.5 9.7 1.1q0.9-0.4 1.8-0.8c-5.1 33.3-20.3 78.1-43.9 124.9-43.5 86.5-98.6 146.3-123.3 133.9z"/>
  <path fill-rule="evenodd" class="c"
        d="m544.5 867.4c-25.4 10.9-76.7-52.3-114.7-141.2-17.9-41.7-29.6-81.6-34.4-113.3q3.1 0.7 6.3 0.9c2.8 29.5 13.8 69.5 31.8 111.6 33.5 78.5 78.8 134.2 101.2 124.6 22.4-9.6 13.4-80.8-20.1-159.3-19.2-44.8-42.2-82.2-62.5-104.3q0.7-3.1 0.7-6.5c0-1.8 2.2-3.7 3.2-5.5 21.7 25.5 45.6 65.4 65.7 112.4 38 89 48.2 169.7 22.8 180.6z"/>
  <path class="c"
        d="m491.8 747.7c-32.8 11.1-59.8 18.4-60.5 16.3-0.7-2.1 25.2-12.7 57.9-23.8 32.8-11.1 59.8-18.4 60.5-16.3 0.7 2-25.2 12.7-57.9 23.8z"/>
</svg>
