<?xml version="1.0" encoding="UTF-8"?>
<svg id="Layer_2" data-name="Layer 2" xmlns="http://www.w3.org/2000/svg" viewBox="0 0 212.55 203.13">
  <defs>
    <style>
      .cls-1 {
        fill: #e5e5e5;
      }
    </style>
  </defs>
  <g id="Layer_2-2" data-name="Layer 2">
    <path class="cls-1" d="M212.55,101.57c0,10.62-16.9,18.45-20.01,28.03-3.23,9.93,5.74,26.18-.28,34.45-6.08,8.35-24.33,4.82-32.69,10.89-8.27,6.02-10.51,24.5-20.45,27.73-9.59,3.11-22.22-10.42-32.85-10.42s-23.26,13.54-32.85,10.42-12.18-21.71-20.45-27.73c-8.35-6.08-26.61-2.54-32.69-10.89-6.02-8.27,2.94-24.51-.28-34.44C16.9,120.01,0,112.19,0,101.57s16.9-18.45,20.01-28.03-5.74-26.18,.28-34.45c6.08-8.35,24.33-4.82,32.69-10.89C61.25,22.18,63.49,3.69,73.43,.46s22.22,10.42,32.85,10.42S129.54-2.65,139.13,.46s12.18,21.71,20.45,27.73c8.35,6.08,26.61,2.54,32.69,10.89s-2.94,24.51,.28,34.44c3.11,9.59,20.01,17.41,20.01,28.03Z"/>
  </g>
</svg>