<?xml version="1.0" encoding="UTF-8"?>
<svg id="Layer_2" data-name="Layer 2" xmlns="http://www.w3.org/2000/svg" viewBox="0 0 200 200">
  <defs>
    <style>
      .cls-1 {
        fill: #e5e5e5;
      }
    </style>
  </defs>
  <g id="Layer_2-2" data-name="Layer 2">
    <path class="cls-1" d="M200,100c0,10.46-15.9,18.16-18.83,27.6-3.04,9.78,5.4,25.77-.27,33.91-5.72,8.22-22.9,4.74-30.76,10.73-7.78,5.93-9.89,24.13-19.24,27.3s-20.91-10.26-30.91-10.26-21.89,13.33-30.91,10.26-11.46-21.38-19.24-27.3c-7.86-5.98-25.04-2.5-30.76-10.73-5.66-8.14,2.77-24.13-.27-33.91S0,110.46,0,100s15.9-18.16,18.83-27.6-5.4-25.77,.27-33.91c5.72-8.22,22.9-4.74,30.76-10.73S59.74,3.63,69.09,.46c9.02-3.06,20.91,10.26,30.91,10.26S121.89-2.61,130.91,.46s11.46,21.38,19.24,27.3c7.86,5.98,25.04,2.5,30.76,10.73s-2.77,24.13,.27,33.91,18.83,17.14,18.83,27.6Z"/>
  </g>
</svg>