<svg width="1em" height="1em" viewBox="0 0 24 24" fill="none" xmlns="http://www.w3.org/2000/svg" focusable="false" role="img"><path fill-rule="evenodd" clip-rule="evenodd" d="M21.42 12C18.387 8.517 15.247 7 12 7s-6.387 1.517-9.42 5c3.033 3.483 6.173 5 9.42 5s6.387-1.517 9.42-5ZM12 17a5 5 0 1 0 0-10 5 5 0 0 0 0 10Zm12-5c-3.582-4.667-7.582-7-12-7S3.582 7.333 0 12c3.582 4.667 7.582 7 12 7s8.418-2.333 12-7Zm-12 3a3 3 0 1 0 0-6 3 3 0 0 0 0 6Zm0-2a1 1 0 1 0 0-2 1 1 0 0 0 0 2Z" fill="currentColor"></path></svg>