<svg width="600" height="640" viewBox="0 0 600 640" fill="none" xmlns="http://www.w3.org/2000/svg">
<rect width="600" height="640" fill="#FFF2F7"/>
<path d="M191.662 294.47L318.675 401.605H64.649L191.662 294.47Z" fill="#BAD5FB"/>
<rect x="96.0505" y="267" width="186.897" height="170.317" rx="20" fill="#BAD5FB"/>
<path d="M59.7095 397.942H320.154V553.753C320.154 564.799 311.2 573.753 300.154 573.753H79.7095C68.6638 573.753 59.7095 564.799 59.7095 553.753V397.942Z" fill="#BAD5FB"/>
<path d="M319.044 398.702L285.198 369.367V287.559C285.198 276.231 276.486 267.014 265.778 267.014L114.058 267C103.35 267 94.6378 276.217 94.6378 287.545V369.354L60.792 398.688C60.1008 399.282 59.7095 400.179 59.7095 401.117V554.454C59.7095 565.603 68.2783 574.669 78.8167 574.669H301.047C311.585 574.669 320.154 565.603 320.154 554.454L320.141 401.131C320.141 400.193 319.735 399.295 319.044 398.702ZM312.484 401.131L285.199 424.78V377.479L312.484 401.131ZM114.057 273.293H265.777C273.211 273.293 279.263 279.695 279.263 287.56V429.93L218.863 482.279L202.025 467.68C194.891 461.499 184.94 461.499 177.806 467.68L160.968 482.279L100.568 429.93L100.555 287.56C100.555 279.695 106.609 273.293 114.057 273.293ZM94.6235 424.783L67.3388 401.133L94.6235 377.483V424.783ZM65.6173 407.77L156.274 486.35L68.1982 562.679C66.594 560.375 65.6158 557.546 65.6158 554.469L65.6173 407.77ZM78.803 568.409C76.638 568.409 74.6165 567.802 72.8035 566.808L181.563 472.538C186.48 468.274 193.353 468.274 198.257 472.538L307.017 566.808C305.204 567.802 303.195 568.409 301.017 568.409H78.803ZM311.621 562.682L223.545 486.339L314.201 407.759V554.473C314.201 557.55 313.212 560.378 311.621 562.682ZM217.091 299.596C217.091 297.858 218.422 296.45 220.065 296.45H255.58C257.223 296.45 258.554 297.858 258.554 299.596C258.554 301.335 257.223 302.742 255.58 302.742H220.052C218.421 302.742 217.091 301.335 217.091 299.596ZM217.091 323.481C217.091 321.742 218.422 320.335 220.065 320.335H255.58C257.223 320.335 258.554 321.742 258.554 323.481C258.554 325.219 257.223 326.627 255.58 326.627L220.052 326.613C218.421 326.613 217.091 325.219 217.091 323.481ZM236.655 442.862C236.655 444.601 235.324 446.008 233.681 446.008H146.127C144.483 446.008 143.153 444.601 143.153 442.862C143.153 441.123 144.483 439.716 146.127 439.716H233.695C235.338 439.73 236.655 441.137 236.655 442.862ZM121.281 395.105C121.281 393.367 122.611 391.959 124.255 391.959H255.578C257.222 391.959 258.552 393.367 258.552 395.105C258.552 396.844 257.221 398.251 255.578 398.251H124.241C122.611 398.251 121.281 396.844 121.281 395.105ZM121.281 418.99C121.281 417.251 122.611 415.844 124.255 415.844H255.578C257.222 415.844 258.552 417.251 258.552 418.99C258.552 420.728 257.221 422.136 255.578 422.136L124.241 422.122C122.611 422.122 121.281 420.728 121.281 418.99ZM121.281 371.233C121.281 369.494 122.611 368.087 124.255 368.087H255.578C257.222 368.087 258.552 369.494 258.552 371.233C258.552 372.971 257.221 374.379 255.578 374.379L124.241 374.365C122.611 374.365 121.281 372.971 121.281 371.233ZM217.089 347.348C217.089 345.61 218.42 344.202 220.063 344.202H255.578C257.221 344.202 258.552 345.61 258.552 347.348C258.552 349.087 257.221 350.494 255.578 350.494H220.049C218.419 350.494 217.089 349.087 217.089 347.348ZM132.443 350.494H185.564C191.72 350.494 196.741 345.196 196.741 338.669V308.272C196.741 301.759 191.733 296.447 185.564 296.447L132.443 296.461C126.287 296.461 121.265 301.759 121.265 308.286V338.683C121.278 345.196 126.287 350.494 132.443 350.494ZM127.213 308.287C127.213 305.237 129.561 302.74 132.456 302.74H185.577C188.459 302.74 190.82 305.224 190.82 308.287V338.684C190.82 341.733 188.472 344.231 185.577 344.231L132.443 344.217C129.56 344.217 127.2 341.733 127.2 338.67L127.213 308.287Z" fill="#0063C1"/>
<g opacity="0.15">
<rect x="407.648" width="191.988" height="631" fill="#99C4DD"/>
<rect x="8" width="191.988" height="631" fill="#FFC2C2"/>
<rect x="407.648" y="229.806" width="171.383" height="207.66" transform="rotate(90 407.648 229.806)" fill="#FFD799"/>
</g>
</svg>
