<svg width="600" height="640" viewBox="0 0 600 640" fill="none" xmlns="http://www.w3.org/2000/svg">
<g clip-path="url(#clip0_11_24)">
<rect width="600" height="640" fill="#FFF2F7"/>
<g opacity="0.15">
<rect x="405.298" width="194.702" height="639.921" fill="#99C4DD"/>
<rect width="194.702" height="639.921" fill="#FFC2C2"/>
<rect x="405.298" y="233.054" width="173.806" height="210.596" transform="rotate(90 405.298 233.054)" fill="#FFD799"/>
</g>
<rect x="111.234" y="285.406" width="204.477" height="294.375" rx="20" fill="#FFD9E6"/>
<rect width="204.812" height="45.9687" rx="11" transform="matrix(0.598555 -0.801082 0.799611 0.600518 238.116 470.109)" fill="#FFD9E6"/>
<path d="M119.652 280C111.598 280 105 286.284 105 293.953V566.047C105 573.716 111.599 580 119.652 580H302.808C310.862 580 317.461 573.716 317.461 566.047V444.716L395.416 341.919C397.044 339.77 397.718 337.417 397.935 335.378C398.043 334.359 398.024 333.396 397.82 332.435C397.617 331.473 397.465 330.367 395.874 329.273L365.997 308.67C364.406 307.576 363.242 307.788 362.219 307.907C361.197 308.026 360.225 308.36 359.243 308.779C357.28 309.617 355.262 310.991 353.634 313.14L317.461 360.887V293.953C317.461 286.284 310.862 280 302.808 280H119.652ZM119.652 286.977H302.808C306.93 286.977 310.134 290.028 310.134 293.953V370.589L256.561 441.228C255.953 442.031 255.771 442.309 255.302 443.19C254.833 444.072 254.297 445.265 253.585 446.679C252.16 449.506 250.285 453.391 248.09 457.907C243.701 466.939 238.024 478.634 232.522 490.283C227.021 501.932 221.71 513.537 217.755 522.224C215.778 526.567 214.166 530.105 213.062 532.689C211.443 535.813 210.737 538.717 211.917 540.102C212.098 540.381 212.607 540.804 213.062 541.083C211.827 540.475 210.608 539.243 209.284 537.049C207.301 533.764 205.64 528.863 204.019 523.641C202.397 518.418 200.819 512.937 198.982 508.161C197.145 503.386 195.288 499.087 191.198 496.715C188.964 495.381 185.515 497.258 185.589 499.767V548.605H183.07C183.012 548.545 183.024 548.57 182.956 548.496C182.412 547.87 181.557 546.749 180.666 545.336C178.885 542.508 176.741 538.51 174.714 534.434C172.686 530.359 170.727 526.113 169.333 522.77C168.637 521.098 168.101 519.709 167.731 518.627C167.509 517.978 167.334 517.463 167.273 517.211V489.303C167.273 485.499 163.943 482.327 159.947 482.327H156.284C154.681 482.327 153.828 482.942 153.193 483.417C152.558 483.892 152.069 484.391 151.59 484.943C150.632 486.047 149.727 487.392 148.728 488.976C146.732 492.145 144.526 496.214 142.432 500.423C140.339 504.632 138.406 508.89 136.938 512.414C136.204 514.176 135.552 515.798 135.106 517.101C134.661 518.404 134.305 519.1 134.305 520.699V534.652C134.277 536.495 136.033 538.141 137.968 538.141C139.904 538.141 141.659 536.495 141.631 534.652V521.026C141.673 520.984 141.812 520.093 142.089 519.281C142.459 518.2 142.995 516.702 143.692 515.03C145.085 511.687 147.044 507.442 149.072 503.366C151.099 499.29 153.243 495.401 155.024 492.574C155.915 491.16 156.77 489.93 157.314 489.303H159.947V517.211C159.947 518.809 160.302 519.396 160.748 520.699C161.194 522.002 161.845 523.624 162.58 525.386C164.048 528.91 165.981 533.169 168.074 537.377C170.168 541.586 172.374 545.764 174.37 548.933C175.368 550.517 176.274 551.862 177.232 552.966C177.711 553.518 178.2 554.018 178.835 554.493C179.47 554.967 180.323 555.583 181.925 555.583H185.589C189.584 555.583 192.915 552.411 192.915 548.606V513.068C194.257 516.934 195.533 521.133 196.921 525.604C198.587 530.969 200.405 536.258 202.988 540.539C205.572 544.82 209.508 548.606 214.893 548.606C216.829 548.641 218.557 546.96 218.557 545.118C218.557 543.274 216.829 541.603 214.893 541.629C214.526 541.629 214.216 541.507 213.863 541.413C213.863 541.413 214.905 541.552 215.237 541.521C216.457 541.598 217.246 540.846 218.099 540.213C222.261 537.172 226.503 533.396 229.889 530.511C237.299 524.2 247.145 515.715 257.019 507.073C266.894 498.431 276.761 489.685 284.378 482.873C288.187 479.467 291.397 476.548 293.765 474.37C294.949 473.28 296.01 472.346 296.741 471.645C297.472 470.943 297.735 470.704 298.344 469.9L310.134 454.312V566.049C310.134 569.974 306.93 573.025 302.808 573.025H119.652C115.53 573.025 112.326 569.974 112.326 566.049V293.956C112.326 290.03 115.531 286.977 119.652 286.977ZM362.677 314.993L390.723 334.288C390.728 334.438 390.746 334.504 390.723 334.724C390.63 335.601 390.225 336.771 389.464 337.776L371.606 361.432C371.402 361.224 371.17 361.041 370.919 360.887L342.072 340.283L359.587 317.173C360.348 316.168 361.375 315.462 362.219 315.102C362.43 315.012 362.526 315.035 362.677 314.993ZM144.607 325.349C142.928 325.654 141.601 327.21 141.631 328.837V363.721C141.631 365.547 143.376 367.209 145.294 367.209H189.252C191.17 367.209 192.915 365.547 192.915 363.721V328.837C192.915 327.011 191.17 325.349 189.252 325.349H145.294C145.066 325.328 144.836 325.328 144.607 325.349ZM148.957 332.326H185.589V360.233H148.957V332.326ZM337.837 345.952L366.569 366.446C366.809 366.661 367.079 366.845 367.371 366.991L293.078 464.884L262.399 445.48C262.392 445.481 262.576 445.18 262.514 445.263L337.837 345.952ZM140.944 409.07C139.026 409.241 137.445 411.059 137.625 412.885C137.804 414.712 139.713 416.218 141.631 416.047H236.872C238.807 416.074 240.535 414.401 240.535 412.558C240.535 410.715 238.807 409.044 236.872 409.07H140.944ZM140.944 440.465C139.026 440.636 137.445 442.454 137.625 444.28C137.804 446.107 139.713 447.613 141.631 447.442H222.22C224.155 447.477 225.883 445.796 225.883 443.953C225.883 442.11 224.155 440.439 222.22 440.465H140.944ZM259.194 451.802L287.927 470.007C285.653 472.078 282.825 474.631 279.341 477.747C271.753 484.534 261.84 493.321 251.982 501.948C242.125 510.575 232.334 519.111 224.967 525.385C224.488 525.793 224.28 525.978 223.822 526.366C224.072 525.815 224.131 525.527 224.395 524.949C228.327 516.313 233.784 504.747 239.276 493.118C244.768 481.488 250.357 469.848 254.73 460.85C256.509 457.19 257.908 454.373 259.194 451.802Z" fill="#CB0035"/>
</g>
<defs>
<clipPath id="clip0_11_24">
<rect width="600" height="640" fill="white"/>
</clipPath>
</defs>
</svg>
