<svg width="600" height="640" viewBox="0 0 600 640" fill="none" xmlns="http://www.w3.org/2000/svg">
<rect width="600" height="640" fill="#FFF2F7"/>
<path d="M226.662 307.47L353.675 414.605H99.649L226.662 307.47Z" fill="#BAD5FB"/>
<rect x="131.051" y="280" width="186.897" height="170.317" rx="20" fill="#BAD5FB"/>
<path d="M94.7095 410.942H355.154V566.753C355.154 577.799 346.2 586.753 335.154 586.753H114.709C103.664 586.753 94.7095 577.799 94.7095 566.753V410.942Z" fill="#BAD5FB"/>
<path d="M354.044 411.702L320.198 382.367V300.559C320.198 289.231 311.486 280.014 300.778 280.014L149.058 280C138.35 280 129.638 289.217 129.638 300.545V382.354L95.792 411.688C95.1008 412.282 94.7095 413.179 94.7095 414.117V567.454C94.7095 578.603 103.278 587.669 113.817 587.669H336.047C346.585 587.669 355.154 578.603 355.154 567.454L355.141 414.131C355.141 413.193 354.735 412.295 354.044 411.702ZM347.484 414.131L320.199 437.78V390.479L347.484 414.131ZM149.057 286.293H300.777C308.211 286.293 314.263 292.695 314.263 300.56V442.93L253.863 495.279L237.025 480.68C229.891 474.499 219.94 474.499 212.806 480.68L195.968 495.279L135.568 442.93L135.555 300.56C135.555 292.695 141.609 286.293 149.057 286.293ZM129.623 437.783L102.339 414.133L129.623 390.483V437.783ZM100.617 420.77L191.274 499.35L103.198 575.679C101.594 573.375 100.616 570.546 100.616 567.469L100.617 420.77ZM113.803 581.409C111.638 581.409 109.616 580.802 107.803 579.808L216.563 485.538C221.48 481.274 228.353 481.274 233.257 485.538L342.017 579.808C340.204 580.802 338.195 581.409 336.017 581.409H113.803ZM346.621 575.682L258.545 499.339L349.201 420.759V567.473C349.201 570.55 348.212 573.378 346.621 575.682ZM252.091 312.596C252.091 310.858 253.422 309.45 255.065 309.45H290.58C292.223 309.45 293.554 310.858 293.554 312.596C293.554 314.335 292.223 315.742 290.58 315.742H255.052C253.421 315.742 252.091 314.335 252.091 312.596ZM252.091 336.481C252.091 334.742 253.422 333.335 255.065 333.335H290.58C292.223 333.335 293.554 334.742 293.554 336.481C293.554 338.219 292.223 339.627 290.58 339.627L255.052 339.613C253.421 339.613 252.091 338.219 252.091 336.481ZM271.655 455.862C271.655 457.601 270.324 459.008 268.681 459.008H181.127C179.483 459.008 178.153 457.601 178.153 455.862C178.153 454.123 179.483 452.716 181.127 452.716H268.695C270.338 452.73 271.655 454.137 271.655 455.862ZM156.281 408.105C156.281 406.367 157.611 404.959 159.255 404.959H290.578C292.222 404.959 293.552 406.367 293.552 408.105C293.552 409.844 292.221 411.251 290.578 411.251H159.241C157.611 411.251 156.281 409.844 156.281 408.105ZM156.281 431.99C156.281 430.251 157.611 428.844 159.255 428.844H290.578C292.222 428.844 293.552 430.251 293.552 431.99C293.552 433.728 292.221 435.136 290.578 435.136L159.241 435.122C157.611 435.122 156.281 433.728 156.281 431.99ZM156.281 384.233C156.281 382.494 157.611 381.087 159.255 381.087H290.578C292.222 381.087 293.552 382.494 293.552 384.233C293.552 385.971 292.221 387.379 290.578 387.379L159.241 387.365C157.611 387.365 156.281 385.971 156.281 384.233ZM252.089 360.348C252.089 358.61 253.42 357.202 255.063 357.202H290.578C292.221 357.202 293.552 358.61 293.552 360.348C293.552 362.087 292.221 363.494 290.578 363.494H255.049C253.419 363.494 252.089 362.087 252.089 360.348ZM167.443 363.494H220.564C226.72 363.494 231.741 358.196 231.741 351.669V321.272C231.741 314.759 226.733 309.447 220.564 309.447L167.443 309.461C161.287 309.461 156.265 314.759 156.265 321.286V351.683C156.278 358.196 161.287 363.494 167.443 363.494ZM162.213 321.287C162.213 318.237 164.561 315.74 167.456 315.74H220.577C223.459 315.74 225.82 318.224 225.82 321.287V351.684C225.82 354.733 223.472 357.231 220.577 357.231L167.443 357.217C164.56 357.217 162.2 354.733 162.2 351.67L162.213 321.287Z" fill="#0063C1"/>
<g opacity="0.15">
<rect x="407.648" width="191.988" height="631" fill="#99C4DD"/>
<rect x="8" width="191.988" height="631" fill="#FFC2C2"/>
<rect x="407.648" y="229.806" width="171.383" height="207.66" transform="rotate(90 407.648 229.806)" fill="#FFD799"/>
</g>
</svg>
