<svg width="600" height="640" viewBox="0 0 600 640" fill="none" xmlns="http://www.w3.org/2000/svg">
<rect width="600" height="640" fill="#FFF2F7"/>
<path d="M201.662 307.47L328.675 414.605H74.649L201.662 307.47Z" fill="#BAD5FB"/>
<rect x="106.051" y="280" width="186.897" height="170.317" rx="20" fill="#BAD5FB"/>
<path d="M69.7095 410.942H330.154V566.753C330.154 577.799 321.2 586.753 310.154 586.753H89.7095C78.6638 586.753 69.7095 577.799 69.7095 566.753V410.942Z" fill="#BAD5FB"/>
<path d="M329.044 411.702L295.198 382.367V300.559C295.198 289.231 286.486 280.014 275.778 280.014L124.058 280C113.35 280 104.638 289.217 104.638 300.545V382.354L70.792 411.688C70.1008 412.282 69.7095 413.179 69.7095 414.117V567.454C69.7095 578.603 78.2783 587.669 88.8167 587.669H311.047C321.585 587.669 330.154 578.603 330.154 567.454L330.141 414.131C330.141 413.193 329.735 412.295 329.044 411.702ZM322.484 414.131L295.199 437.78V390.479L322.484 414.131ZM124.057 286.293H275.777C283.211 286.293 289.263 292.695 289.263 300.56V442.93L228.863 495.279L212.025 480.68C204.891 474.499 194.94 474.499 187.806 480.68L170.968 495.279L110.568 442.93L110.555 300.56C110.555 292.695 116.609 286.293 124.057 286.293ZM104.623 437.783L77.3388 414.133L104.623 390.483V437.783ZM75.6173 420.77L166.274 499.35L78.1982 575.679C76.594 573.375 75.6158 570.546 75.6158 567.469L75.6173 420.77ZM88.803 581.409C86.638 581.409 84.6165 580.802 82.8035 579.808L191.563 485.538C196.48 481.274 203.353 481.274 208.257 485.538L317.017 579.808C315.204 580.802 313.195 581.409 311.017 581.409H88.803ZM321.621 575.682L233.545 499.339L324.201 420.759V567.473C324.201 570.55 323.212 573.378 321.621 575.682ZM227.091 312.596C227.091 310.858 228.422 309.45 230.065 309.45H265.58C267.223 309.45 268.554 310.858 268.554 312.596C268.554 314.335 267.223 315.742 265.58 315.742H230.052C228.421 315.742 227.091 314.335 227.091 312.596ZM227.091 336.481C227.091 334.742 228.422 333.335 230.065 333.335H265.58C267.223 333.335 268.554 334.742 268.554 336.481C268.554 338.219 267.223 339.627 265.58 339.627L230.052 339.613C228.421 339.613 227.091 338.219 227.091 336.481ZM246.655 455.862C246.655 457.601 245.324 459.008 243.681 459.008H156.127C154.483 459.008 153.153 457.601 153.153 455.862C153.153 454.123 154.483 452.716 156.127 452.716H243.695C245.338 452.73 246.655 454.137 246.655 455.862ZM131.281 408.105C131.281 406.367 132.611 404.959 134.255 404.959H265.578C267.222 404.959 268.552 406.367 268.552 408.105C268.552 409.844 267.221 411.251 265.578 411.251H134.241C132.611 411.251 131.281 409.844 131.281 408.105ZM131.281 431.99C131.281 430.251 132.611 428.844 134.255 428.844H265.578C267.222 428.844 268.552 430.251 268.552 431.99C268.552 433.728 267.221 435.136 265.578 435.136L134.241 435.122C132.611 435.122 131.281 433.728 131.281 431.99ZM131.281 384.233C131.281 382.494 132.611 381.087 134.255 381.087H265.578C267.222 381.087 268.552 382.494 268.552 384.233C268.552 385.971 267.221 387.379 265.578 387.379L134.241 387.365C132.611 387.365 131.281 385.971 131.281 384.233ZM227.089 360.348C227.089 358.61 228.42 357.202 230.063 357.202H265.578C267.221 357.202 268.552 358.61 268.552 360.348C268.552 362.087 267.221 363.494 265.578 363.494H230.049C228.419 363.494 227.089 362.087 227.089 360.348ZM142.443 363.494H195.564C201.72 363.494 206.741 358.196 206.741 351.669V321.272C206.741 314.759 201.733 309.447 195.564 309.447L142.443 309.461C136.287 309.461 131.265 314.759 131.265 321.286V351.683C131.278 358.196 136.287 363.494 142.443 363.494ZM137.213 321.287C137.213 318.237 139.561 315.74 142.456 315.74H195.577C198.459 315.74 200.82 318.224 200.82 321.287V351.684C200.82 354.733 198.472 357.231 195.577 357.231L142.443 357.217C139.56 357.217 137.2 354.733 137.2 351.67L137.213 321.287Z" fill="#0063C1"/>
<g opacity="0.15">
<rect x="407.648" width="191.988" height="631" fill="#99C4DD"/>
<rect x="8" width="191.988" height="631" fill="#FFC2C2"/>
<rect x="407.648" y="229.806" width="171.383" height="207.66" transform="rotate(90 407.648 229.806)" fill="#FFD799"/>
</g>
</svg>
