<svg width="600" height="640" viewBox="0 0 600 640" fill="none" xmlns="http://www.w3.org/2000/svg">
<rect width="600" height="640" fill="#FFF2F7"/>
<path d="M226.662 294.47L353.675 401.605H99.649L226.662 294.47Z" fill="#BAD5FB"/>
<rect x="131.051" y="267" width="186.897" height="170.317" rx="20" fill="#BAD5FB"/>
<path d="M94.7095 397.942H355.154V553.753C355.154 564.799 346.2 573.753 335.154 573.753H114.709C103.664 573.753 94.7095 564.799 94.7095 553.753V397.942Z" fill="#BAD5FB"/>
<path d="M354.044 398.702L320.198 369.367V287.559C320.198 276.231 311.486 267.014 300.778 267.014L149.058 267C138.35 267 129.638 276.217 129.638 287.545V369.354L95.792 398.688C95.1008 399.282 94.7095 400.179 94.7095 401.117V554.454C94.7095 565.603 103.278 574.669 113.817 574.669H336.047C346.585 574.669 355.154 565.603 355.154 554.454L355.141 401.131C355.141 400.193 354.735 399.295 354.044 398.702ZM347.484 401.131L320.199 424.78V377.479L347.484 401.131ZM149.057 273.293H300.777C308.211 273.293 314.263 279.695 314.263 287.56V429.93L253.863 482.279L237.025 467.68C229.891 461.499 219.94 461.499 212.806 467.68L195.968 482.279L135.568 429.93L135.555 287.56C135.555 279.695 141.609 273.293 149.057 273.293ZM129.623 424.783L102.339 401.133L129.623 377.483V424.783ZM100.617 407.77L191.274 486.35L103.198 562.679C101.594 560.375 100.616 557.546 100.616 554.469L100.617 407.77ZM113.803 568.409C111.638 568.409 109.616 567.802 107.803 566.808L216.563 472.538C221.48 468.274 228.353 468.274 233.257 472.538L342.017 566.808C340.204 567.802 338.195 568.409 336.017 568.409H113.803ZM346.621 562.682L258.545 486.339L349.201 407.759V554.473C349.201 557.55 348.212 560.378 346.621 562.682ZM252.091 299.596C252.091 297.858 253.422 296.45 255.065 296.45H290.58C292.223 296.45 293.554 297.858 293.554 299.596C293.554 301.335 292.223 302.742 290.58 302.742H255.052C253.421 302.742 252.091 301.335 252.091 299.596ZM252.091 323.481C252.091 321.742 253.422 320.335 255.065 320.335H290.58C292.223 320.335 293.554 321.742 293.554 323.481C293.554 325.219 292.223 326.627 290.58 326.627L255.052 326.613C253.421 326.613 252.091 325.219 252.091 323.481ZM271.655 442.862C271.655 444.601 270.324 446.008 268.681 446.008H181.127C179.483 446.008 178.153 444.601 178.153 442.862C178.153 441.123 179.483 439.716 181.127 439.716H268.695C270.338 439.73 271.655 441.137 271.655 442.862ZM156.281 395.105C156.281 393.367 157.611 391.959 159.255 391.959H290.578C292.222 391.959 293.552 393.367 293.552 395.105C293.552 396.844 292.221 398.251 290.578 398.251H159.241C157.611 398.251 156.281 396.844 156.281 395.105ZM156.281 418.99C156.281 417.251 157.611 415.844 159.255 415.844H290.578C292.222 415.844 293.552 417.251 293.552 418.99C293.552 420.728 292.221 422.136 290.578 422.136L159.241 422.122C157.611 422.122 156.281 420.728 156.281 418.99ZM156.281 371.233C156.281 369.494 157.611 368.087 159.255 368.087H290.578C292.222 368.087 293.552 369.494 293.552 371.233C293.552 372.971 292.221 374.379 290.578 374.379L159.241 374.365C157.611 374.365 156.281 372.971 156.281 371.233ZM252.089 347.348C252.089 345.61 253.42 344.202 255.063 344.202H290.578C292.221 344.202 293.552 345.61 293.552 347.348C293.552 349.087 292.221 350.494 290.578 350.494H255.049C253.419 350.494 252.089 349.087 252.089 347.348ZM167.443 350.494H220.564C226.72 350.494 231.741 345.196 231.741 338.669V308.272C231.741 301.759 226.733 296.447 220.564 296.447L167.443 296.461C161.287 296.461 156.265 301.759 156.265 308.286V338.683C156.278 345.196 161.287 350.494 167.443 350.494ZM162.213 308.287C162.213 305.237 164.561 302.74 167.456 302.74H220.577C223.459 302.74 225.82 305.224 225.82 308.287V338.684C225.82 341.733 223.472 344.231 220.577 344.231L167.443 344.217C164.56 344.217 162.2 341.733 162.2 338.67L162.213 308.287Z" fill="#0063C1"/>
<g opacity="0.15">
<rect x="407.648" width="191.988" height="631" fill="#99C4DD"/>
<rect x="8" width="191.988" height="631" fill="#FFC2C2"/>
<rect x="407.648" y="229.806" width="171.383" height="207.66" transform="rotate(90 407.648 229.806)" fill="#FFD799"/>
</g>
</svg>
