<svg width="1024" height="576" viewBox="0 0 1024 576" fill="none" xmlns="http://www.w3.org/2000/svg">
<g clip-path="url(#clip0_1_139)">
<rect width="1024" height="576" fill="#FFF2F7"/>
<path d="M229.5 188.749L391.014 316.47H67.9863L229.5 188.749Z" fill="#BAD5FB"/>
<rect x="107.917" y="156" width="237.664" height="203.043" rx="20" fill="#BAD5FB"/>
<path d="M61.7051 312.103H392.894V501.696C392.894 512.742 383.94 521.696 372.894 521.696H81.7051C70.6594 521.696 61.7051 512.742 61.7051 501.696V312.103Z" fill="#BAD5FB"/>
<path d="M391.483 313.009L348.443 278.038V180.51C348.443 167.005 337.364 156.016 323.748 156.016L130.816 156C117.2 156 106.121 166.988 106.121 180.493V278.021L63.0816 312.993C62.2026 313.7 61.7051 314.769 61.7051 315.888V498.689C61.7051 511.98 72.6014 522.788 86.0024 522.788H368.597C381.997 522.788 392.894 511.981 392.894 498.689L392.877 315.905C392.877 314.786 392.362 313.716 391.483 313.009ZM383.141 315.904L348.445 344.098V287.708L383.141 315.904ZM130.814 163.502H323.747C333.2 163.502 340.896 171.135 340.896 180.511V350.237L264.09 412.645L242.678 395.242C233.606 387.872 220.952 387.872 211.88 395.242L190.468 412.645L113.662 350.237L113.646 180.511C113.646 171.135 121.344 163.502 130.814 163.502ZM106.103 344.101L71.4067 315.907L106.103 287.713V344.101ZM69.2176 323.819L184.499 417.498L72.4996 508.495C70.4596 505.748 69.2158 502.376 69.2158 498.708L69.2176 323.819ZM85.985 515.325C83.2319 515.325 80.6613 514.601 78.3558 513.417L216.658 401.033C222.91 395.95 231.65 395.95 237.886 401.033L376.188 513.417C373.883 514.601 371.329 515.325 368.559 515.325H85.985ZM382.043 508.499L270.043 417.485L385.325 323.806V498.712C385.325 502.38 384.066 505.752 382.043 508.499ZM261.836 194.86C261.836 192.787 263.528 191.109 265.618 191.109H310.78C312.87 191.109 314.561 192.787 314.561 194.86C314.561 196.932 312.87 198.61 310.78 198.61H265.601C263.528 198.61 261.836 196.932 261.836 194.86ZM261.836 223.333C261.836 221.261 263.528 219.583 265.618 219.583H310.78C312.87 219.583 314.561 221.261 314.561 223.333C314.561 225.406 312.87 227.084 310.78 227.084L265.601 227.067C263.528 227.067 261.836 225.406 261.836 223.333ZM286.714 365.654C286.714 367.727 285.022 369.405 282.933 369.405H171.596C169.506 369.405 167.814 367.727 167.814 365.654C167.814 363.582 169.506 361.904 171.596 361.904H282.95C285.039 361.92 286.714 363.598 286.714 365.654ZM140.001 308.721C140.001 306.648 141.693 304.97 143.783 304.97H310.778C312.867 304.97 314.559 306.648 314.559 308.721C314.559 310.794 312.867 312.471 310.778 312.471H143.766C141.693 312.471 140.001 310.794 140.001 308.721ZM140.001 337.195C140.001 335.122 141.693 333.444 143.783 333.444H310.778C312.867 333.444 314.559 335.122 314.559 337.195C314.559 339.267 312.867 340.945 310.778 340.945L143.766 340.929C141.693 340.929 140.001 339.267 140.001 337.195ZM140.001 280.261C140.001 278.189 141.693 276.511 143.783 276.511H310.778C312.867 276.511 314.559 278.189 314.559 280.261C314.559 282.334 312.867 284.012 310.778 284.012L143.766 283.995C141.693 283.995 140.001 282.334 140.001 280.261ZM261.834 251.788C261.834 249.715 263.526 248.037 265.615 248.037H310.777C312.867 248.037 314.559 249.715 314.559 251.788C314.559 253.86 312.867 255.538 310.777 255.538H265.598C263.525 255.538 261.834 253.86 261.834 251.788ZM154.195 255.538H221.745C229.574 255.538 235.959 249.221 235.959 241.441V205.202C235.959 197.438 229.59 191.105 221.745 191.105L154.195 191.122C146.367 191.122 139.981 197.438 139.981 205.219V241.457C139.998 249.221 146.367 255.538 154.195 255.538ZM147.544 205.22C147.544 201.585 150.53 198.608 154.212 198.608H221.762C225.427 198.608 228.429 201.568 228.429 205.22V241.458C228.429 245.094 225.444 248.071 221.762 248.071L154.195 248.055C150.529 248.055 147.527 245.094 147.527 241.442L147.544 205.22Z" fill="#0063C1"/>
<g opacity="0.15">
<rect x="841.674" width="181.912" height="597.884" fill="#99C4DD"/>
<rect x="463" width="181.912" height="597.884" fill="#FFC2C2"/>
<rect x="841.674" y="217.745" width="162.388" height="196.762" transform="rotate(90 841.674 217.745)" fill="#FFD799"/>
</g>
</g>
<defs>
<clipPath id="clip0_1_139">
<rect width="1024" height="576" fill="white"/>
</clipPath>
</defs>
</svg>
