<svg width="1024" height="576" viewBox="0 0 1024 576" fill="none" xmlns="http://www.w3.org/2000/svg">
<g clip-path="url(#clip0_6_71)">
<rect width="1024" height="576" fill="#FFF2F7"/>
<rect x="98.6789" y="402.28" width="88.0739" height="85.0387" fill="#FFEBC7"/>
<rect x="156.382" y="441.465" width="104.271" height="50.8565" fill="#FFEBC7"/>
<path d="M158.407 460.64H301.148V463.916C301.148 490.194 279.845 511.497 253.567 511.497H209.264C181.176 511.497 158.407 488.727 158.407 460.64V460.64Z" fill="#FFEBC7"/>
<path d="M240.292 481.053L376.052 419.601C385.996 415.1 398.969 418.811 405.029 427.89V427.89C411.088 436.969 407.939 447.978 397.995 452.479L262.235 513.931L240.292 481.053Z" fill="#FFEBC7"/>
<path d="M155.659 392.684L273.359 447.942C280.645 451.362 282.838 459.501 278.257 466.119V466.119C273.675 472.738 264.055 475.33 256.768 471.909L139.068 416.652L155.659 392.684Z" fill="#FFEBC7"/>
<rect x="49.0741" y="392.276" width="50.6172" height="105.048" fill="#FFEBC7"/>
<path d="M166.506 224.759C192.166 224.587 241.288 210.82 241.288 153C241.288 176.465 256.317 222.949 315.859 224.707C317.074 224.696 318.246 224.714 319.37 224.759C318.183 224.759 317.012 224.741 315.859 224.707C289.575 224.951 243.509 238.904 241.366 294.028C241.383 295.434 241.355 296.784 241.288 298.066C241.288 296.696 241.314 295.35 241.366 294.028C241.053 268.636 226.11 224.759 166.506 224.759Z" fill="#FFEBC7"/>
<path d="M166.506 224.759C192.166 224.587 241.288 210.82 241.288 153C241.288 176.92 256.904 224.759 319.37 224.759C293.343 223.726 241.288 236.942 241.288 298.066C242.571 273.63 229.411 224.759 166.506 224.759Z" stroke="#CA5000" stroke-width="10" stroke-linejoin="round"/>
<path d="M87.5431 319.63C103.347 319.512 133.601 310.097 133.601 270.554C133.601 286.601 142.857 318.392 179.529 319.595C180.277 319.587 180.999 319.599 181.691 319.63C180.96 319.63 180.239 319.618 179.529 319.595C163.34 319.761 134.969 329.304 133.649 367.004C133.66 367.965 133.643 368.888 133.601 369.765C133.601 368.828 133.617 367.908 133.649 367.004C133.456 349.638 124.253 319.63 87.5431 319.63Z" fill="#FFEBC7"/>
<path d="M87.5431 319.63C103.347 319.512 133.601 310.097 133.601 270.554C133.601 286.912 143.219 319.63 181.691 319.63C165.661 318.924 133.601 327.962 133.601 369.765C134.391 353.054 126.286 319.63 87.5431 319.63Z" stroke="#CA5000" stroke-width="10" stroke-linejoin="round"/>
<path d="M246.481 357.147C262.285 357.029 292.539 347.614 292.539 308.071C292.539 324.119 301.795 355.909 338.467 357.112C339.215 357.104 339.937 357.116 340.629 357.147C339.898 357.147 339.177 357.135 338.467 357.112C322.278 357.278 293.907 366.821 292.587 404.521C292.597 405.483 292.58 406.406 292.539 407.282C292.539 406.346 292.555 405.425 292.587 404.521C292.394 387.155 283.191 357.147 246.481 357.147Z" fill="#FFEBC7"/>
<path d="M246.481 357.147C262.285 357.029 292.539 347.614 292.539 308.071C292.539 324.429 302.157 357.147 340.629 357.147C324.599 356.441 292.539 365.479 292.539 407.282C293.329 390.571 285.224 357.147 246.481 357.147Z" stroke="#CA5000" stroke-width="10" stroke-linejoin="round"/>
<path d="M91.4707 386.106C99.2651 386.106 105.543 391.371 105.543 397.563V399.35L106.116 399.265L143.327 393.752H143.34L143.376 393.747C160.57 391.217 178.295 393.736 193.421 400.897L274.099 439.065C282.183 442.892 286.819 449.728 287.202 456.802L287.242 457.545L287.915 457.227L372.429 417.228L372.428 417.227C378.729 414.253 385.942 413.663 392.489 415.095V415.096C399.04 416.542 404.904 420.003 408.513 425.139H408.514C412.125 430.261 412.838 436.105 411.1 441.408C409.413 446.55 405.41 451.213 399.44 454.208L398.856 454.493L314.263 494.558L286.901 507.489C258.689 520.841 224.3 522.121 194.712 510.939H194.711L156.488 496.502C145.821 492.469 134.22 490.369 122.478 490.369H105.572L105.559 490.854C105.379 496.927 99.1844 502.039 91.501 502.039H57.6201C49.8233 502.039 43.5 496.773 43.5 490.582V397.564C43.5 391.361 49.823 386.107 57.6201 386.107L91.4707 386.106ZM156.358 401.28C153.133 401.291 149.894 401.503 146.676 401.923L145.298 402.117L106.002 407.907L105.574 407.969V481.863H106.075L122.494 481.85C135.361 481.85 148.079 484.082 159.832 488.368L160.967 488.789L199.205 503.225V503.226C225.65 513.218 256.34 512.071 281.583 500.133L308.96 487.203L393.554 447.177C397.376 445.369 399.963 442.509 401.024 439.277C402.088 436.038 401.604 432.469 399.369 429.3C394.914 422.984 385.402 420.934 377.78 424.54L283.162 469.319L283.058 469.369L282.985 469.458C275.41 478.929 259.881 482.097 247.703 476.342H247.704L180.574 444.561H180.572C179.43 444.024 178.604 443.163 178.207 442.181L178.134 441.983C177.792 440.92 177.968 439.786 178.639 438.82C180.074 436.79 183.334 436.038 185.892 437.259L185.894 437.26L253.039 469.016C260.678 472.622 270.142 470.572 274.597 464.256V464.255C276.823 461.088 277.315 457.52 276.262 454.281C275.21 451.048 272.636 448.188 268.812 446.379L188.135 408.211H188.136C178.431 403.614 167.479 401.263 156.42 401.283L156.404 401.28H156.358ZM57.6045 394.61C55.6376 394.61 54.041 395.749 54.041 397.564L54.0566 490.582C54.0566 492.397 55.6532 493.537 57.6201 493.537H91.501C92.4844 493.537 93.3573 493.257 93.9941 492.738C94.6381 492.212 95.0166 491.457 95.0166 490.582V397.564C95.0166 396.686 94.6444 395.93 94 395.404C93.3636 394.884 92.4899 394.61 91.501 394.61H57.6045Z" fill="#CA5000" stroke="#CA5000"/>
<g opacity="0.15">
<rect x="841.674" y="4" width="181.912" height="597.884" fill="#99C4DD"/>
<rect x="463" y="4" width="181.912" height="597.884" fill="#FFC2C2"/>
<rect x="841.674" y="221.745" width="162.388" height="196.762" transform="rotate(90 841.674 221.745)" fill="#FFD799"/>
</g>
</g>
<defs>
<clipPath id="clip0_6_71">
<rect width="1024" height="576" fill="white"/>
</clipPath>
</defs>
</svg>
