<svg width="600" height="640" viewBox="0 0 600 640" fill="none" xmlns="http://www.w3.org/2000/svg">
<g clip-path="url(#clip0_11_40)">
<rect width="600" height="640" fill="#FFF2F7"/>
<g opacity="0.15">
<rect x="405.298" width="194.702" height="639.921" fill="#99C4DD"/>
<rect width="194.702" height="639.921" fill="#FFC2C2"/>
<rect x="405.298" y="233.054" width="173.806" height="210.596" transform="rotate(90 405.298 233.054)" fill="#FFD799"/>
</g>
<rect x="133.737" y="484.328" width="69.184" height="69.7039" fill="#FFEBC7"/>
<rect x="179.064" y="516.446" width="81.9075" height="41.6856" fill="#FFEBC7"/>
<path d="M180.655 532.164H292.781V536.474C292.781 557.116 276.047 573.85 255.405 573.85H222.341C199.318 573.85 180.655 555.186 180.655 532.164V532.164Z" fill="#FFEBC7"/>
<path d="M244.978 548.896L351.3 498.676C359.288 494.904 369.622 497.878 374.382 505.32V505.32C379.141 512.762 376.525 521.853 368.537 525.626L262.214 575.845L244.978 548.896Z" fill="#FFEBC7"/>
<path d="M178.496 476.463L270.73 521.647C276.576 524.511 278.398 531.23 274.8 536.655V536.655C271.201 542.08 263.544 544.156 257.698 541.292L165.464 496.108L178.496 476.463Z" fill="#FFEBC7"/>
<rect x="94.7713" y="476.128" width="39.7609" height="86.1048" fill="#FFEBC7"/>
<path d="M187.017 338.819C207.174 338.678 245.76 327.393 245.76 280C245.76 299.234 257.565 337.335 304.337 338.776C305.291 338.767 306.212 338.782 307.095 338.819C306.162 338.819 305.243 338.804 304.337 338.776C283.69 338.976 247.505 350.413 245.821 395.597C245.834 396.749 245.813 397.856 245.76 398.907C245.76 397.784 245.78 396.681 245.821 395.597C245.575 374.783 233.837 338.819 187.017 338.819Z" fill="#FFEBC7"/>
<path d="M187.017 338.819C207.174 338.678 245.76 327.393 245.76 280C245.76 299.606 258.027 338.819 307.095 338.819C286.65 337.972 245.76 348.805 245.76 398.907C246.768 378.877 236.43 338.819 187.017 338.819Z" stroke="#CA5000" stroke-width="10" stroke-linejoin="round"/>
<path d="M124.99 416.582C137.404 416.485 161.169 408.768 161.169 376.355C161.169 389.509 168.44 415.567 197.246 416.553C197.834 416.547 198.401 416.557 198.945 416.582C198.371 416.582 197.805 416.572 197.246 416.553C184.53 416.69 162.244 424.512 161.207 455.413C161.215 456.201 161.202 456.958 161.169 457.677C161.169 456.909 161.182 456.154 161.207 455.413C161.055 441.179 153.826 416.582 124.99 416.582Z" fill="#FFEBC7"/>
<path d="M124.99 416.582C137.404 416.485 161.169 408.768 161.169 376.355C161.169 389.764 168.724 416.582 198.945 416.582C186.353 416.003 161.169 423.412 161.169 457.677C161.79 443.978 155.423 416.582 124.99 416.582Z" stroke="#CA5000" stroke-width="10" stroke-linejoin="round"/>
<path d="M249.839 447.334C262.253 447.237 286.019 439.52 286.019 407.107C286.019 420.261 293.289 446.319 322.096 447.305C322.683 447.298 323.251 447.309 323.794 447.334C323.22 447.334 322.654 447.324 322.096 447.305C309.38 447.441 287.093 455.263 286.056 486.165C286.064 486.953 286.051 487.709 286.019 488.428C286.019 487.66 286.031 486.906 286.056 486.165C285.905 471.93 278.675 447.334 249.839 447.334Z" fill="#FFEBC7"/>
<path d="M249.839 447.334C262.253 447.237 286.019 439.52 286.019 407.107C286.019 420.516 293.574 447.334 323.794 447.334C311.202 446.755 286.019 454.163 286.019 488.428C286.639 474.73 280.272 447.334 249.839 447.334Z" stroke="#CA5000" stroke-width="10" stroke-linejoin="round"/>
<path d="M128.074 471.161C134.137 471.161 139.021 475.434 139.021 480.461V482.035L139.599 481.945L168.816 477.428H168.828L168.866 477.422C182.348 475.352 196.246 477.413 208.105 483.272L271.48 514.557C277.796 517.677 281.419 523.251 281.719 529.022L281.759 529.781L282.439 529.444L348.827 496.659L348.826 496.658C353.75 494.233 359.386 493.752 364.504 494.919V494.92C369.624 496.099 374.206 498.921 377.025 503.108L377.026 503.109C382.648 511.429 379.309 522.191 369.48 527.047H369.479L303.029 559.887L281.537 570.487C259.406 581.416 232.429 582.465 209.218 573.311L179.192 561.478C170.799 558.166 161.671 556.442 152.432 556.442H139.048L139.034 556.927C138.895 561.858 134.075 566.008 128.099 566.008H101.484C95.4192 566.008 90.5002 561.733 90.5 556.708V480.462C90.5 475.426 95.4187 471.162 101.484 471.162L128.074 471.161ZM179.045 483.418C176.143 483.429 173.228 483.654 170.338 484.105L139.471 488.851L139.047 488.917V549.65H139.547L152.444 549.639C162.537 549.639 172.512 551.466 181.731 554.974L182.621 555.319L212.658 567.152C233.138 575.226 256.853 574.44 276.532 565.066L277.466 564.614L298.971 554.015V554.014L365.422 521.207C368.45 519.712 370.499 517.347 371.34 514.675C372.182 511.999 371.799 509.05 370.029 506.432C366.499 501.21 358.962 499.516 352.924 502.497L278.6 539.2L278.495 539.251L278.424 539.344C272.505 547.065 260.369 549.65 250.852 544.957L198.121 518.907L198.119 518.906C197.188 518.449 196.531 517.698 196.254 516.848C195.993 515.999 196.128 515.095 196.64 514.326C197.736 512.705 200.231 512.102 202.19 513.078L202.192 513.079L254.938 539.107C260.988 542.088 268.488 540.393 272.018 535.171H272.019C273.781 532.554 274.17 529.606 273.336 526.929C272.503 524.257 270.463 521.892 267.435 520.397L204.061 489.112C196.425 485.337 187.809 483.406 179.108 483.42L179.094 483.417L179.045 483.418ZM101.472 477.951C100.669 477.951 99.9481 478.187 99.418 478.63C98.8818 479.079 98.5654 479.721 98.5654 480.462L98.5781 556.708C98.5782 557.449 98.8945 558.091 99.4307 558.54C99.9608 558.983 100.682 559.218 101.484 559.218H128.099C128.896 559.218 129.61 558.982 130.133 558.537C130.661 558.086 130.968 557.444 130.968 556.708V480.462C130.968 479.723 130.667 479.079 130.138 478.628C129.615 478.183 128.9 477.951 128.099 477.951H101.472Z" fill="#CA5000" stroke="#CA5000"/>
</g>
<defs>
<clipPath id="clip0_11_40">
<rect width="600" height="640" fill="white"/>
</clipPath>
</defs>
</svg>
