<svg width="1024" height="768" viewBox="0 0 1024 768" fill="none" xmlns="http://www.w3.org/2000/svg">
    <g clip-path="url(#clip0_8363_81660)">
        <rect width="1024" height="768" fill="#FFF2F7"/>
        <g opacity="0.15">
            <rect x="781.395" y="-40.5527" width="246.15" height="815.436" fill="#99C4DD"/>
            <rect x="269" y="-40.5527" width="246.15" height="815.436" fill="#FFC2C2"/>
            <rect x="781.395" y="256.424" width="221.476" height="266.244" transform="rotate(90 781.395 256.424)" fill="#FFD799"/>
        </g>
        <path d="M289 291.727L496.846 457.39H81.1539L289 291.727Z" fill="#BAD5FB"/>
        <rect x="132.539" y="249.248" width="305.841" height="263.363" rx="20" fill="#BAD5FB"/>
        <path d="M73.0703 451.727H499.265V703.585C499.265 714.631 490.311 723.585 479.265 723.585H93.0703C82.0246 723.585 73.0703 714.631 73.0703 703.585V451.727Z" fill="#BAD5FB"/>
        <path d="M497.449 452.901L442.063 407.54V281.039C442.063 263.522 427.806 249.269 410.284 249.269L162.007 249.248C144.485 249.248 130.228 263.501 130.228 281.018V407.519L74.8418 452.88C73.7106 453.797 73.0703 455.184 73.0703 456.635V693.743C73.0703 710.982 87.0924 725 104.338 725H467.998C485.242 725 499.265 710.982 499.265 693.743L499.244 456.657C499.244 455.206 498.58 453.818 497.449 452.901ZM486.714 456.656L442.065 493.226V420.084L486.714 456.656ZM162.005 258.979H410.282C422.447 258.979 432.35 268.879 432.35 281.041V501.189L333.512 582.136L305.958 559.563C294.284 550.004 277.999 550.004 266.325 559.563L238.771 582.136L139.932 501.189L139.911 281.041C139.911 268.879 149.818 258.979 162.005 258.979ZM130.204 493.23L85.555 456.66L130.204 420.09V493.23ZM82.7379 466.922L231.089 588.431L86.9614 706.461C84.3362 702.898 82.7355 698.524 82.7355 693.766L82.7379 466.922ZM104.315 715.32C100.772 715.32 97.4643 714.382 94.4975 712.845L272.473 567.074C280.519 560.481 291.766 560.481 299.792 567.074L477.767 712.845C474.8 714.382 471.514 715.32 467.949 715.32H104.315ZM485.301 706.466L341.173 588.414L489.524 466.906V693.772C489.524 698.53 487.905 702.903 485.301 706.466ZM330.612 299.652C330.612 296.964 332.789 294.787 335.478 294.787H393.596C396.285 294.787 398.462 296.964 398.462 299.652C398.462 302.34 396.285 304.517 393.596 304.517H335.456C332.788 304.517 330.612 302.34 330.612 299.652ZM330.612 336.585C330.612 333.896 332.789 331.72 335.478 331.72H393.596C396.285 331.72 398.462 333.896 398.462 336.585C398.462 339.273 396.285 341.449 393.596 341.449L335.456 341.428C332.788 341.428 330.612 339.273 330.612 336.585ZM362.626 521.186C362.626 523.874 360.449 526.05 357.76 526.05H214.485C211.795 526.05 209.619 523.874 209.619 521.186C209.619 518.497 211.796 516.321 214.485 516.321H357.782C360.471 516.343 362.626 518.519 362.626 521.186ZM173.827 447.339C173.827 444.65 176.004 442.474 178.693 442.474H393.592C396.282 442.474 398.459 444.65 398.459 447.339C398.459 450.027 396.282 452.203 393.592 452.203H178.671C176.003 452.203 173.827 450.027 173.827 447.339ZM173.827 484.272C173.827 481.583 176.004 479.407 178.693 479.407H393.592C396.282 479.407 398.459 481.583 398.459 484.272C398.459 486.96 396.282 489.136 393.592 489.136L178.671 489.115C176.003 489.115 173.827 486.96 173.827 484.272ZM173.827 410.425C173.827 407.736 176.004 405.56 178.693 405.56H393.592C396.282 405.56 398.459 407.736 398.459 410.425C398.459 413.113 396.282 415.289 393.592 415.289L178.671 415.268C176.003 415.268 173.827 413.113 173.827 410.425ZM330.609 373.492C330.609 370.803 332.786 368.627 335.475 368.627H393.592C396.282 368.627 398.459 370.804 398.459 373.492C398.459 376.18 396.282 378.356 393.592 378.356H335.453C332.785 378.356 330.609 376.18 330.609 373.492ZM192.092 378.356H279.02C289.094 378.356 297.311 370.163 297.311 360.071V313.067C297.311 302.996 289.115 294.782 279.02 294.782L192.092 294.803C182.018 294.803 173.801 302.996 173.801 313.089V360.092C173.823 370.163 182.018 378.356 192.092 378.356ZM183.534 313.09C183.534 308.375 187.376 304.513 192.114 304.513H279.041C283.758 304.513 287.621 308.354 287.621 313.09V360.094C287.621 364.809 283.779 368.671 279.041 368.671L192.092 368.65C187.375 368.65 183.512 364.809 183.512 360.073L183.534 313.09Z" fill="#0063C1"/>
    </g>
    <defs>
        <clipPath id="clip0_8363_81660">
            <rect width="1024" height="768" fill="white"/>
        </clipPath>
    </defs>
</svg>
