<svg width="1024" height="576" viewBox="0 0 1024 576" fill="none" xmlns="http://www.w3.org/2000/svg">
<g clip-path="url(#clip0_6_55)">
<rect width="1024" height="576" fill="#FFF2F7"/>
<rect x="90" y="153" width="260.306" height="359.138" rx="20" fill="#FFD9E6"/>
<rect width="253.816" height="57.6525" rx="11" transform="matrix(0.614868 -0.78863 0.811641 0.584157 259.462 384.933)" fill="#FFD9E6"/>
<path d="M108.653 153C98.4001 153 90 160.666 90 170.023V501.977C90 511.334 98.4003 519 108.653 519H341.817C352.07 519 360.47 511.334 360.47 501.977V353.954L459.711 228.541C461.783 225.92 462.641 223.048 462.917 220.561C463.055 219.317 463.03 218.143 462.771 216.97C462.512 215.797 462.319 214.448 460.294 213.113L422.259 187.977C420.233 186.643 418.752 186.902 417.45 187.047C416.148 187.191 414.911 187.599 413.661 188.11C411.161 189.133 408.593 190.809 406.52 193.43L360.47 251.682V170.023C360.47 160.666 352.07 153 341.817 153H108.653ZM108.653 161.512H341.817C347.065 161.512 351.144 165.234 351.144 170.023V263.518L282.943 349.698C282.168 350.678 281.938 351.017 281.34 352.092C280.743 353.168 280.061 354.623 279.154 356.348C277.341 359.797 274.954 364.537 272.159 370.047C266.571 381.066 259.344 395.334 252.341 409.546C245.337 423.757 238.577 437.915 233.542 448.513C231.024 453.812 228.972 458.128 227.567 461.281C225.506 465.092 224.608 468.634 226.11 470.324C226.34 470.665 226.988 471.181 227.567 471.521C225.995 470.78 224.443 469.276 222.758 466.6C220.234 462.592 218.118 456.613 216.054 450.242C213.991 443.87 211.981 437.183 209.642 431.357C207.304 425.531 204.94 420.286 199.733 417.392C196.89 415.765 192.499 418.054 192.592 421.116V480.698H189.386C189.312 480.625 189.327 480.655 189.241 480.566C188.548 479.801 187.46 478.434 186.326 476.709C184.058 473.26 181.329 468.382 178.748 463.41C176.167 458.438 173.673 453.258 171.899 449.179C171.012 447.139 170.33 445.445 169.859 444.125C169.576 443.334 169.353 442.705 169.276 442.397V408.35C169.276 403.708 165.036 399.839 159.949 399.839H155.286C153.246 399.839 152.16 400.589 151.351 401.168C150.543 401.748 149.921 402.357 149.311 403.03C148.091 404.377 146.939 406.018 145.668 407.951C143.127 411.816 140.318 416.78 137.653 421.916C134.988 427.051 132.528 432.246 130.658 436.545C129.723 438.695 128.894 440.673 128.326 442.263C127.759 443.853 127.306 444.702 127.306 446.653V463.676C127.271 465.924 129.506 467.932 131.97 467.932C134.433 467.932 136.668 465.924 136.633 463.676V447.051C136.686 447 136.863 445.914 137.216 444.923C137.687 443.604 138.369 441.776 139.256 439.737C141.03 435.658 143.524 430.479 146.105 425.506C148.686 420.534 151.415 415.789 153.683 412.34C154.817 410.616 155.905 409.114 156.598 408.35H159.949V442.397C159.949 444.347 160.402 445.063 160.969 446.653C161.537 448.242 162.366 450.221 163.301 452.371C165.171 456.67 167.631 461.866 170.296 467C172.961 472.135 175.77 477.232 178.311 481.098C179.582 483.03 180.734 484.672 181.954 486.019C182.564 486.692 183.186 487.302 183.994 487.881C184.803 488.46 185.889 489.211 187.929 489.211H192.592C197.679 489.211 201.919 485.341 201.919 480.699V437.343C203.628 442.06 205.253 447.183 207.019 452.637C209.139 459.182 211.454 465.635 214.743 470.858C218.031 476.08 223.043 480.699 229.899 480.699C232.362 480.742 234.562 478.692 234.562 476.443C234.562 474.195 232.362 472.156 229.899 472.188C229.431 472.188 229.036 472.039 228.587 471.924C228.587 471.924 229.914 472.094 230.336 472.056C231.889 472.149 232.894 471.233 233.979 470.46C239.278 466.75 244.677 462.143 248.989 458.623C258.422 450.924 270.956 440.572 283.526 430.029C296.097 419.486 308.658 408.816 318.355 400.505C323.204 396.349 327.29 392.788 330.305 390.131C331.812 388.802 333.163 387.663 334.094 386.806C335.024 385.95 335.359 385.659 336.134 384.678L351.144 365.66V501.979C351.144 506.768 347.065 510.491 341.817 510.491H108.653C103.406 510.491 99.3266 506.768 99.3266 501.979V170.026C99.3266 165.237 103.406 161.512 108.653 161.512ZM418.033 195.691L453.736 219.231C453.743 219.414 453.766 219.495 453.736 219.763C453.617 220.834 453.102 222.261 452.133 223.487L429.4 252.347C429.139 252.093 428.845 251.87 428.525 251.682L391.802 226.546L414.098 198.351C415.067 197.125 416.375 196.264 417.45 195.824C417.719 195.714 417.84 195.743 418.033 195.691ZM140.422 208.326C138.284 208.698 136.594 210.596 136.633 212.581V255.14C136.633 257.368 138.854 259.395 141.296 259.395H197.256C199.697 259.395 201.919 257.368 201.919 255.14V212.581C201.919 210.353 199.697 208.326 197.256 208.326H141.296C141.005 208.3 140.712 208.3 140.422 208.326ZM145.959 216.837H192.592V250.884H145.959V216.837ZM386.41 233.461L422.988 258.464C423.293 258.727 423.637 258.951 424.008 259.129L329.43 378.558L290.375 354.885C290.366 354.887 290.6 354.519 290.521 354.621L386.41 233.461ZM135.758 310.465C133.317 310.674 131.303 312.892 131.532 315.12C131.761 317.348 134.191 319.186 136.633 318.977H257.878C260.342 319.011 262.541 316.97 262.541 314.721C262.541 312.472 260.342 310.433 257.878 310.465H135.758ZM135.758 348.767C133.317 348.976 131.303 351.194 131.532 353.422C131.761 355.65 134.191 357.488 136.633 357.279H239.225C241.689 357.322 243.888 355.272 243.888 353.023C243.888 350.774 241.689 348.736 239.225 348.767H135.758ZM286.295 362.599L322.873 384.809C319.979 387.335 316.378 390.45 311.943 394.251C302.283 402.531 289.664 413.251 277.114 423.776C264.565 434.301 252.1 444.715 242.723 452.37C242.113 452.867 241.848 453.093 241.265 453.567C241.583 452.894 241.659 452.543 241.994 451.838C247 441.302 253.947 427.191 260.938 413.003C267.93 398.815 275.045 384.614 280.612 373.637C282.876 369.172 284.658 365.735 286.295 362.599Z" fill="#CB0035"/>
<g opacity="0.15">
<rect x="841.674" y="-11" width="181.912" height="597.884" fill="#99C4DD"/>
<rect x="463" y="-11" width="181.912" height="597.884" fill="#FFC2C2"/>
<rect x="841.674" y="206.745" width="162.388" height="196.762" transform="rotate(90 841.674 206.745)" fill="#FFD799"/>
</g>
</g>
<defs>
<clipPath id="clip0_6_55">
<rect width="1024" height="576" fill="white"/>
</clipPath>
</defs>
</svg>
