<svg width="1024" height="768" viewBox="0 0 1024 768" fill="none" xmlns="http://www.w3.org/2000/svg">
    <g clip-path="url(#clip0_8363_81680)">
        <rect width="1024" height="768" fill="#FFF2F7"/>
        <g opacity="0.15">
            <rect x="781.395" y="-40.5527" width="246.15" height="815.436" fill="#99C4DD"/>
            <rect x="269" y="-40.5527" width="246.15" height="815.436" fill="#FFC2C2"/>
            <rect x="781.395" y="256.423" width="221.476" height="266.244" transform="rotate(90 781.395 256.423)" fill="#FFD799"/>
        </g>
        <rect x="100" y="239" width="328" height="471" rx="20" fill="#FFD9E6"/>
        <rect x="303.531" y="534.523" width="328" height="73.6703" rx="11" transform="rotate(-53.1633 303.531 534.523)" fill="#FFD9E6"/>
        <path d="M113.504 230.35C100.585 230.35 90 240.404 90 252.675V688.024C90 700.296 100.585 710.35 113.504 710.35H407.303C420.222 710.35 430.807 700.296 430.807 688.024V493.896L555.856 329.419C558.467 325.982 559.547 322.216 559.895 318.954C560.069 317.323 560.038 315.783 559.712 314.245C559.385 312.707 559.142 310.938 556.59 309.187L508.664 276.222C506.112 274.471 504.245 274.811 502.604 275.001C500.964 275.191 499.405 275.726 497.83 276.396C494.681 277.737 491.444 279.935 488.833 283.373L430.807 359.768V252.675C430.807 240.404 420.223 230.35 407.303 230.35H113.504ZM113.504 241.512H407.303C413.915 241.512 419.055 246.395 419.055 252.675V375.291L333.119 488.314C332.143 489.599 331.852 490.043 331.099 491.454C330.346 492.865 329.487 494.774 328.345 497.035C326.059 501.559 323.051 507.775 319.531 515.001C312.489 529.452 303.383 548.165 294.558 566.803C285.733 585.441 277.215 604.009 270.87 617.908C267.698 624.857 265.112 630.517 263.342 634.652C260.745 639.651 259.613 644.296 261.505 646.512C261.796 646.959 262.612 647.636 263.342 648.082C261.361 647.11 259.405 645.138 257.282 641.629C254.101 636.372 251.436 628.531 248.835 620.175C246.235 611.819 243.703 603.049 240.756 595.408C237.809 587.767 234.831 580.889 228.269 577.094C224.687 574.959 219.154 577.962 219.272 581.978V660.117H215.232C215.139 660.022 215.157 660.061 215.048 659.944C214.176 658.941 212.805 657.148 211.376 654.887C208.519 650.363 205.08 643.966 201.827 637.445C198.575 630.923 195.432 624.13 193.197 618.781C192.08 616.106 191.22 613.884 190.626 612.153C190.27 611.115 189.989 610.291 189.892 609.887V565.235C189.892 559.147 184.549 554.072 178.14 554.072H172.264C169.693 554.072 168.324 555.057 167.306 555.816C166.288 556.576 165.504 557.375 164.735 558.258C163.198 560.025 161.746 562.177 160.145 564.711C156.942 569.781 153.404 576.291 150.045 583.026C146.687 589.76 143.587 596.573 141.231 602.212C140.053 605.031 139.008 607.626 138.293 609.711C137.578 611.796 137.008 612.91 137.008 615.468V637.793C136.964 640.742 139.779 643.375 142.884 643.375C145.989 643.375 148.804 640.742 148.76 637.793V615.99C148.827 615.924 149.049 614.499 149.494 613.2C150.088 611.469 150.948 609.073 152.065 606.398C154.3 601.048 157.443 594.257 160.695 587.735C163.948 581.213 167.387 574.991 170.244 570.468C171.673 568.206 173.044 566.237 173.916 565.235H178.14V609.887C178.14 612.444 178.71 613.383 179.425 615.468C180.14 617.553 181.185 620.148 182.363 622.967C184.719 628.606 187.819 635.419 191.177 642.153C194.536 648.888 198.074 655.572 201.277 660.642C202.878 663.176 204.33 665.329 205.867 667.096C206.636 667.979 207.42 668.778 208.438 669.538C209.456 670.297 210.825 671.282 213.396 671.282H219.272C225.681 671.282 231.024 666.207 231.024 660.119V603.259C233.177 609.444 235.224 616.163 237.451 623.316C240.122 631.9 243.039 640.363 247.183 647.212C251.326 654.061 257.642 660.119 266.28 660.119C269.384 660.175 272.156 657.486 272.156 654.538C272.156 651.588 269.384 648.914 266.28 648.956C265.691 648.956 265.193 648.761 264.627 648.61C264.627 648.61 266.299 648.833 266.831 648.783C268.787 648.906 270.054 647.704 271.421 646.69C278.098 641.825 284.902 635.783 290.334 631.167C302.22 621.069 318.014 607.494 333.853 593.667C349.693 579.84 365.521 565.846 377.74 554.946C383.849 549.496 388.998 544.826 392.797 541.341C394.696 539.598 396.399 538.104 397.571 536.981C398.743 535.858 399.165 535.476 400.142 534.19L419.055 509.248V688.027C419.055 694.308 413.915 699.19 407.303 699.19H113.504C106.892 699.19 101.752 694.308 101.752 688.027V252.679C101.752 246.398 106.892 241.512 113.504 241.512ZM503.339 286.338L548.327 317.21C548.336 317.45 548.365 317.557 548.327 317.908C548.177 319.312 547.528 321.184 546.307 322.791L517.662 360.64C517.334 360.308 516.963 360.015 516.56 359.768L470.287 326.803L498.381 289.826C499.602 288.219 501.25 287.089 502.604 286.512C502.943 286.368 503.096 286.406 503.339 286.338ZM153.534 302.908C150.841 303.396 148.712 305.885 148.76 308.489V364.303C148.76 367.225 151.559 369.884 154.636 369.884H225.148C228.224 369.884 231.023 367.225 231.024 364.303V308.489C231.023 305.567 228.224 302.908 225.148 302.908H154.636C154.27 302.874 153.9 302.874 153.534 302.908ZM160.512 314.071H219.272V358.722H160.512V314.071ZM463.492 335.873L509.582 368.664C509.967 369.007 510.4 369.302 510.868 369.536L391.695 526.164L342.484 495.117C342.472 495.119 342.767 494.637 342.667 494.771L463.492 335.873ZM147.658 436.861C144.581 437.135 142.045 440.043 142.333 442.966C142.621 445.888 145.683 448.298 148.76 448.024H301.536C304.64 448.069 307.412 445.392 307.412 442.443C307.412 439.494 304.64 436.82 301.536 436.861H147.658ZM147.658 487.094C144.581 487.367 142.045 490.276 142.333 493.198C142.621 496.121 145.683 498.531 148.76 498.257H278.032C281.136 498.312 283.908 495.624 283.908 492.675C283.908 489.726 281.136 487.052 278.032 487.094H147.658ZM337.342 505.233L383.432 534.361C379.785 537.674 375.248 541.76 369.66 546.745C357.488 557.604 341.587 571.663 325.774 585.466C309.961 599.269 294.255 612.927 282.439 622.966C281.671 623.618 281.336 623.914 280.602 624.536C281.003 623.654 281.098 623.193 281.52 622.268C287.828 608.45 296.582 589.945 305.392 571.338C314.202 552.73 323.166 534.106 330.181 519.71C333.034 513.854 335.279 509.346 337.342 505.233Z" fill="#CB0035"/>
    </g>
    <defs>
        <clipPath id="clip0_8363_81680">
            <rect width="1024" height="768" fill="white"/>
        </clipPath>
    </defs>
</svg>
