<svg width="600" height="640" viewBox="0 0 600 640" fill="none" xmlns="http://www.w3.org/2000/svg">
<g clip-path="url(#clip0_11_2)">
<rect width="600" height="640" fill="#FFF2F7"/>
<path d="M194.662 307.47L321.675 414.605H67.649L194.662 307.47Z" fill="#BAD5FB"/>
<rect x="99.0505" y="280" width="186.897" height="170.317" rx="20" fill="#BAD5FB"/>
<path d="M62.7095 410.942H323.154V566.753C323.154 577.799 314.2 586.753 303.154 586.753H82.7095C71.6638 586.753 62.7095 577.799 62.7095 566.753V410.942Z" fill="#BAD5FB"/>
<path d="M322.044 411.702L288.198 382.367V300.559C288.198 289.231 279.486 280.014 268.778 280.014L117.058 280C106.35 280 97.6378 289.217 97.6378 300.545V382.354L63.792 411.688C63.1008 412.282 62.7095 413.179 62.7095 414.117V567.454C62.7095 578.603 71.2783 587.669 81.8167 587.669H304.047C314.585 587.669 323.154 578.603 323.154 567.454L323.141 414.131C323.141 413.193 322.735 412.295 322.044 411.702ZM315.484 414.131L288.199 437.78V390.479L315.484 414.131ZM117.057 286.293H268.777C276.211 286.293 282.263 292.695 282.263 300.56V442.93L221.863 495.279L205.025 480.68C197.891 474.499 187.94 474.499 180.806 480.68L163.968 495.279L103.568 442.93L103.555 300.56C103.555 292.695 109.609 286.293 117.057 286.293ZM97.6235 437.783L70.3388 414.133L97.6235 390.483V437.783ZM68.6173 420.77L159.274 499.35L71.1982 575.679C69.594 573.375 68.6158 570.546 68.6158 567.469L68.6173 420.77ZM81.803 581.409C79.638 581.409 77.6165 580.802 75.8035 579.808L184.563 485.538C189.48 481.274 196.353 481.274 201.257 485.538L310.017 579.808C308.204 580.802 306.195 581.409 304.017 581.409H81.803ZM314.621 575.682L226.545 499.339L317.201 420.759V567.473C317.201 570.55 316.212 573.378 314.621 575.682ZM220.091 312.596C220.091 310.858 221.422 309.45 223.065 309.45H258.58C260.223 309.45 261.554 310.858 261.554 312.596C261.554 314.335 260.223 315.742 258.58 315.742H223.052C221.421 315.742 220.091 314.335 220.091 312.596ZM220.091 336.481C220.091 334.742 221.422 333.335 223.065 333.335H258.58C260.223 333.335 261.554 334.742 261.554 336.481C261.554 338.219 260.223 339.627 258.58 339.627L223.052 339.613C221.421 339.613 220.091 338.219 220.091 336.481ZM239.655 455.862C239.655 457.601 238.324 459.008 236.681 459.008H149.127C147.483 459.008 146.153 457.601 146.153 455.862C146.153 454.123 147.483 452.716 149.127 452.716H236.695C238.338 452.73 239.655 454.137 239.655 455.862ZM124.281 408.105C124.281 406.367 125.611 404.959 127.255 404.959H258.578C260.222 404.959 261.552 406.367 261.552 408.105C261.552 409.844 260.221 411.251 258.578 411.251H127.241C125.611 411.251 124.281 409.844 124.281 408.105ZM124.281 431.99C124.281 430.251 125.611 428.844 127.255 428.844H258.578C260.222 428.844 261.552 430.251 261.552 431.99C261.552 433.728 260.221 435.136 258.578 435.136L127.241 435.122C125.611 435.122 124.281 433.728 124.281 431.99ZM124.281 384.233C124.281 382.494 125.611 381.087 127.255 381.087H258.578C260.222 381.087 261.552 382.494 261.552 384.233C261.552 385.971 260.221 387.379 258.578 387.379L127.241 387.365C125.611 387.365 124.281 385.971 124.281 384.233ZM220.089 360.348C220.089 358.61 221.42 357.202 223.063 357.202H258.578C260.221 357.202 261.552 358.61 261.552 360.348C261.552 362.087 260.221 363.494 258.578 363.494H223.049C221.419 363.494 220.089 362.087 220.089 360.348ZM135.443 363.494H188.564C194.72 363.494 199.741 358.196 199.741 351.669V321.272C199.741 314.759 194.733 309.447 188.564 309.447L135.443 309.461C129.287 309.461 124.265 314.759 124.265 321.286V351.683C124.278 358.196 129.287 363.494 135.443 363.494ZM130.213 321.287C130.213 318.237 132.561 315.74 135.456 315.74H188.577C191.459 315.74 193.82 318.224 193.82 321.287V351.684C193.82 354.733 191.472 357.231 188.577 357.231L135.443 357.217C132.56 357.217 130.2 354.733 130.2 351.67L130.213 321.287Z" fill="#0063C1"/>
<g opacity="0.15">
<rect x="405.298" width="194.702" height="639.921" fill="#99C4DD"/>
<rect width="194.702" height="639.921" fill="#FFC2C2"/>
<rect x="405.298" y="233.054" width="173.806" height="210.596" transform="rotate(90 405.298 233.054)" fill="#FFD799"/>
</g>
</g>
<defs>
<clipPath id="clip0_11_2">
<rect width="600" height="640" fill="white"/>
</clipPath>
</defs>
</svg>
