<svg width="1024" height="768" viewBox="0 0 1024 768" fill="none" xmlns="http://www.w3.org/2000/svg">
    <g clip-path="url(#clip0_8363_81695)">
        <rect width="1024" height="768" fill="#FFF2F7"/>
        <g opacity="0.15">
            <rect x="781.395" y="-40.5527" width="246.15" height="815.436" fill="#99C4DD"/>
            <rect x="269" y="-40.5527" width="246.15" height="815.436" fill="#FFC2C2"/>
            <rect x="781.395" y="256.423" width="221.476" height="266.244" transform="rotate(90 781.395 256.423)" fill="#FFD799"/>
        </g>
        <rect x="156.012" y="552.244" width="94.9271" height="111.294" fill="#FFEBC7"/>
        <rect x="218.205" y="603.526" width="112.385" height="66.5581" fill="#FFEBC7"/>
        <path d="M220.387 628.622H374.234V645.18C374.234 672.794 351.848 695.18 324.234 695.18H286.945C250.186 695.18 220.387 665.381 220.387 628.622Z" fill="#FFEBC7"/>
        <path d="M308.645 655.337L452.86 576.071C464.742 569.54 479.669 573.878 486.199 585.76C492.73 597.642 488.392 612.569 476.51 619.1L332.295 698.366L308.645 655.337Z" fill="#FFEBC7"/>
        <path d="M217.426 539.686L342.82 611.168C351.482 616.106 354.501 627.131 349.564 635.793C344.626 644.455 333.601 647.474 324.939 642.536L199.544 571.053L217.426 539.686Z" fill="#FFEBC7"/>
        <rect x="102.547" y="539.15" width="54.5558" height="137.481" fill="#FFEBC7"/>
        <path d="M229.115 319.914C256.773 319.688 309.717 301.671 309.717 226C309.717 256.71 325.914 317.545 390.09 319.846C391.399 319.832 392.663 319.855 393.874 319.914C392.594 319.914 391.333 319.891 390.09 319.846C361.76 320.165 312.111 338.426 309.8 410.569C309.819 412.41 309.789 414.176 309.717 415.854C309.717 414.061 309.745 412.3 309.8 410.569C309.463 377.338 293.357 319.914 229.115 319.914Z" fill="#FFEBC7" stroke="#CA5000" stroke-width="10" stroke-linejoin="round"/>
        <path d="M144.01 444.076C161.044 443.922 193.652 431.6 193.652 379.848C193.652 400.85 203.628 442.456 243.153 444.03C243.959 444.02 244.738 444.036 245.484 444.076C244.696 444.076 243.919 444.06 243.153 444.03C225.705 444.248 195.126 456.737 193.703 506.076C193.715 507.335 193.696 508.543 193.652 509.69C193.652 508.464 193.669 507.26 193.703 506.076C193.496 483.349 183.576 444.076 144.01 444.076Z" fill="#FFEBC7" stroke="#CA5000" stroke-width="10" stroke-linejoin="round"/>
        <path d="M315.314 493.176C332.348 493.022 364.956 480.7 364.956 428.947C364.956 449.95 374.932 491.556 414.458 493.13C415.264 493.12 416.042 493.136 416.788 493.176C416 493.176 415.223 493.16 414.458 493.13C397.01 493.348 366.431 505.837 365.008 555.176C365.019 556.434 365.001 557.642 364.956 558.79C364.956 557.564 364.974 556.359 365.008 555.176C364.8 532.448 354.881 493.176 315.314 493.176Z" fill="#FFEBC7" stroke="#CA5000" stroke-width="10" stroke-linejoin="round"/>
        <path d="M148.242 530.922C156.562 530.922 163.448 537.768 163.448 546.07V548.249L164.037 548.143L204.137 540.93H204.152L204.195 540.922C222.713 537.612 241.806 540.905 258.107 550.276L345.062 600.228C353.773 605.235 358.824 614.217 359.242 623.586L359.279 624.406L359.991 623.997L451.08 571.648C457.868 567.759 465.628 566.99 472.671 568.86V568.861C479.715 570.749 486.051 575.275 489.963 582.034V582.035C497.803 595.539 493.091 612.938 479.528 620.735L388.352 673.17L358.862 690.093H358.861C328.46 707.564 291.413 709.238 259.534 694.608L218.338 675.715C206.838 670.435 194.327 667.684 181.662 667.684H163.477L163.465 668.172C163.267 676.31 156.478 682.958 148.275 682.958H111.758C103.436 682.958 96.5 676.11 96.5 667.81V546.071C96.5002 537.755 103.436 530.923 111.758 530.923L148.242 530.922ZM218.179 551.09C214.45 551.106 210.707 551.423 206.99 552.055L206.248 552.185L163.895 559.763L163.482 559.837V656.243H163.982L181.68 656.226C195.986 656.226 210.124 659.337 223.128 665.305L264.342 684.198C292.856 697.281 325.952 695.777 353.165 680.15L353.166 680.151L382.673 663.229L382.674 663.228L473.851 610.846C482.103 606.105 484.86 595.943 480.091 587.732C475.323 579.525 465.063 576.795 456.812 581.536L354.831 640.139L354.729 640.198L354.663 640.297C346.469 652.736 329.745 656.844 316.651 649.331L244.298 607.737L244.296 607.736C242.986 606.989 242.031 605.741 241.622 604.287C241.23 602.817 241.434 601.253 242.186 599.94L242.185 599.939C243.766 597.224 247.271 596.289 249.991 597.865L249.993 597.866L322.364 639.426C330.634 644.167 340.842 641.436 345.609 633.229H345.61C350.36 625.021 347.658 614.859 339.402 610.116L252.447 560.165C241.99 554.15 230.183 551.07 218.255 551.094L218.235 551.09H218.179ZM111.74 542.36C110.654 542.36 109.7 542.733 109.014 543.4C108.327 544.069 107.94 545.004 107.939 546.071L107.956 667.81C107.956 668.877 108.344 669.812 109.03 670.48C109.716 671.148 110.672 671.521 111.758 671.521H148.275C149.354 671.52 150.298 671.147 150.974 670.478C151.649 669.808 152.025 668.873 152.025 667.81V546.071C152.025 545.002 151.655 544.067 150.979 543.397C150.304 542.729 149.36 542.36 148.275 542.36H111.74Z" fill="#CA5000" stroke="#CA5000"/>
    </g>
    <defs>
        <clipPath id="clip0_8363_81695">
            <rect width="1024" height="768" fill="white"/>
        </clipPath>
    </defs>
</svg>
