<svg width="600" height="640" viewBox="0 0 600 640" fill="none" xmlns="http://www.w3.org/2000/svg">
<g clip-path="url(#clip0_11_24)">
<rect width="600" height="640" fill="#FFF2F7"/>
<g opacity="0.15">
<rect x="405.298" width="194.702" height="639.921" fill="#99C4DD"/>
<rect width="194.702" height="639.921" fill="#FFC2C2"/>
<rect x="405.298" y="233.054" width="173.806" height="210.596" transform="rotate(90 405.298 233.054)" fill="#FFD799"/>
</g>
<rect x="96.234" y="285.406" width="204.477" height="294.375" rx="20" fill="#FFD9E6"/>
<rect width="204.812" height="45.9687" rx="11" transform="matrix(0.598555 -0.801082 0.799611 0.600518 223.116 470.109)" fill="#FFD9E6"/>
<path d="M104.652 280C96.5985 280 90 286.284 90 293.953V566.047C90 573.716 96.5986 580 104.652 580H287.808C295.862 580 302.461 573.716 302.461 566.047V444.716L380.416 341.919C382.044 339.77 382.718 337.417 382.935 335.378C383.043 334.359 383.024 333.396 382.82 332.435C382.617 331.473 382.465 330.367 380.874 329.273L350.997 308.67C349.406 307.576 348.242 307.788 347.219 307.907C346.197 308.026 345.225 308.36 344.243 308.779C342.28 309.617 340.262 310.991 338.634 313.14L302.461 360.887V293.953C302.461 286.284 295.862 280 287.808 280H104.652ZM104.652 286.977H287.808C291.93 286.977 295.134 290.028 295.134 293.953V370.589L241.561 441.228C240.953 442.031 240.771 442.309 240.302 443.19C239.833 444.072 239.297 445.265 238.585 446.679C237.16 449.506 235.285 453.391 233.09 457.907C228.701 466.939 223.024 478.634 217.522 490.283C212.021 501.932 206.71 513.537 202.755 522.224C200.778 526.567 199.166 530.105 198.062 532.689C196.443 535.813 195.737 538.717 196.917 540.102C197.098 540.381 197.607 540.804 198.062 541.083C196.827 540.475 195.608 539.243 194.284 537.049C192.301 533.764 190.64 528.863 189.019 523.641C187.397 518.418 185.819 512.937 183.982 508.161C182.145 503.386 180.288 499.087 176.198 496.715C173.964 495.381 170.515 497.258 170.589 499.767V548.605H168.07C168.012 548.545 168.024 548.57 167.956 548.496C167.412 547.87 166.557 546.749 165.666 545.336C163.885 542.508 161.741 538.51 159.714 534.434C157.686 530.359 155.727 526.113 154.333 522.77C153.637 521.098 153.101 519.709 152.731 518.627C152.509 517.978 152.334 517.463 152.273 517.211V489.303C152.273 485.499 148.943 482.327 144.947 482.327H141.284C139.681 482.327 138.828 482.942 138.193 483.417C137.558 483.892 137.069 484.391 136.59 484.943C135.632 486.047 134.727 487.392 133.728 488.976C131.732 492.145 129.526 496.214 127.432 500.423C125.339 504.632 123.406 508.89 121.938 512.414C121.204 514.176 120.552 515.798 120.106 517.101C119.661 518.404 119.305 519.1 119.305 520.699V534.652C119.277 536.495 121.033 538.141 122.968 538.141C124.904 538.141 126.659 536.495 126.631 534.652V521.026C126.673 520.984 126.812 520.093 127.089 519.281C127.459 518.2 127.995 516.702 128.692 515.03C130.085 511.687 132.044 507.442 134.072 503.366C136.099 499.29 138.243 495.401 140.024 492.574C140.915 491.16 141.77 489.93 142.314 489.303H144.947V517.211C144.947 518.809 145.302 519.396 145.748 520.699C146.194 522.002 146.845 523.624 147.58 525.386C149.048 528.91 150.981 533.169 153.074 537.377C155.168 541.586 157.374 545.764 159.37 548.933C160.368 550.517 161.274 551.862 162.232 552.966C162.711 553.518 163.2 554.018 163.835 554.493C164.47 554.967 165.323 555.583 166.925 555.583H170.589C174.584 555.583 177.915 552.411 177.915 548.606V513.068C179.257 516.934 180.533 521.133 181.921 525.604C183.587 530.969 185.405 536.258 187.988 540.539C190.572 544.82 194.508 548.606 199.893 548.606C201.829 548.641 203.557 546.96 203.557 545.118C203.557 543.274 201.829 541.603 199.893 541.629C199.526 541.629 199.216 541.507 198.863 541.413C198.863 541.413 199.905 541.552 200.237 541.521C201.457 541.598 202.246 540.846 203.099 540.213C207.261 537.172 211.503 533.396 214.889 530.511C222.299 524.2 232.145 515.715 242.019 507.073C251.894 498.431 261.761 489.685 269.378 482.873C273.187 479.467 276.397 476.548 278.765 474.37C279.949 473.28 281.01 472.346 281.741 471.645C282.472 470.943 282.735 470.704 283.344 469.9L295.134 454.312V566.049C295.134 569.974 291.93 573.025 287.808 573.025H104.652C100.53 573.025 97.3263 569.974 97.3263 566.049V293.956C97.3263 290.03 100.531 286.977 104.652 286.977ZM347.677 314.993L375.723 334.288C375.728 334.438 375.746 334.504 375.723 334.724C375.63 335.601 375.225 336.771 374.464 337.776L356.606 361.432C356.402 361.224 356.17 361.041 355.919 360.887L327.072 340.283L344.586 317.173C345.348 316.168 346.375 315.462 347.219 315.102C347.43 315.012 347.526 315.035 347.677 314.993ZM129.607 325.349C127.928 325.654 126.601 327.21 126.631 328.837V363.721C126.631 365.547 128.376 367.209 130.294 367.209H174.252C176.17 367.209 177.915 365.547 177.915 363.721V328.837C177.915 327.011 176.17 325.349 174.252 325.349H130.294C130.066 325.328 129.836 325.328 129.607 325.349ZM133.957 332.326H170.589V360.233H133.957V332.326ZM322.837 345.952L351.569 366.446C351.809 366.661 352.079 366.845 352.371 366.991L278.078 464.884L247.399 445.48C247.392 445.481 247.576 445.18 247.514 445.263L322.837 345.952ZM125.944 409.07C124.026 409.241 122.445 411.059 122.625 412.885C122.804 414.712 124.713 416.218 126.631 416.047H221.872C223.807 416.074 225.535 414.401 225.535 412.558C225.535 410.715 223.807 409.044 221.872 409.07H125.944ZM125.944 440.465C124.026 440.636 122.445 442.454 122.625 444.28C122.804 446.107 124.713 447.613 126.631 447.442H207.22C209.155 447.477 210.883 445.796 210.883 443.953C210.883 442.11 209.155 440.439 207.22 440.465H125.944ZM244.194 451.802L272.927 470.007C270.653 472.078 267.825 474.631 264.341 477.747C256.753 484.534 246.84 493.321 236.982 501.948C227.125 510.575 217.334 519.111 209.967 525.385C209.488 525.793 209.28 525.978 208.822 526.366C209.072 525.815 209.131 525.527 209.395 524.949C213.327 516.313 218.784 504.747 224.276 493.118C229.768 481.488 235.357 469.848 239.73 460.85C241.509 457.19 242.908 454.373 244.194 451.802Z" fill="#CB0035"/>
</g>
<defs>
<clipPath id="clip0_11_24">
<rect width="600" height="640" fill="white"/>
</clipPath>
</defs>
</svg>
